<svg viewBox="0 0 488.82 415" xmlns="http://www.w3.org/2000/svg"><path d="M173.03 64.53l5.39-9.62-34.82-19.53 34.82 19.53zm.29-27.73l-11.6-6.52-11.61-6.51 34.82 19.54zm131.37 119.48l-9.77 17.41 3.26-5.81zm3.23 1.81l-3.23-1.81zm136.31 92.31a5 5 0 012.07 3.24 4.31 4.31 0 01-.74 2.42 6.24 6.24 0 01-.79 1 6.55 6.55 0 01-.94-.89 4.2 4.2 0 01-1.11-2.27 4.93 4.93 0 011.51-3.5zm-15.39-12.93a4 4 0 01.94-2.22 4.72 4.72 0 013.5-1.1 4.72 4.72 0 01-1 3.52 4.14 4.14 0 01-2.2 1 6 6 0 01-1.24.07 6.39 6.39 0 010-1.27zM56.46 403.74a4.63 4.63 0 01-4.16 1.74l-6.3-.73 6.69-5.17a7.68 7.68 0 012.75-1.35l6.66-1.75zm52.59-8c-1 .23-2.1.43-3.15.61v2.55a63.47 63.47 0 01-29.07-.31l-3.35-6.18-7.68 3.23-3-.82-15-10.49-22.2-15.51a39.18 39.18 0 016-6.78c13.94-15.67 38.77-18.1 57.65-4.92 13.3 9.34 20.35 24.18 19.8 38.62zM472.01 21.23l-2.53 4.53zM329.74 193.22l5.69-10.13-2.43 4.33zM213.24 74.45l6.23-11.11-19.25 34.33 6.51-11.61zm-59.45-2.83l11.61 6.51-34.83-19.54 11.61 6.52zm74.74 57.19l5.34-9.52-18.36 32.74 6.51-11.61zM165.4 78.13l-9.77 17.41 3.25-5.8zm202.42 128.82l5.43-9.67-18.45 32.89 6.51-11.61zM235.04 117.2l10.61-18.91-4.1 7.3zm-41.33-7.93l-6.52 11.61-6.51 11.61 19.54-34.82zm41.26 8.06l.07-.13zm46.5 25.92l11.61 6.51 11.61 6.52-34.82-19.54z" fill="none"/><path d="M339.51 175.81l.01-.02zm107.84 29.49c-2 .12-4 .18-6.1.18a126.63 126.63 0 01-25.25-2.74l-3.87 6.9a124.18 124.18 0 0023.67 2.43c2.06 0 4.11-.06 6.1-.19 17.13-1 31.09-6.61 41.46-16.55a55.8 55.8 0 005.49-6.1v-.48c-10.41 9.93-24.36 15.5-41.5 16.55zm-74.1-8.02l.03-.06zM219.77 62.82l4.43-7.9zm154.58 132.5l-.02.03z" fill="#c14f29"/><path d="M488.82 15.4V.14l-.25-.14h-4.64l-5.4 9.63z" fill="#5c3c2e"/><path d="M488.82 0h-.25l.25.14zm-16.8 21.23l11.6 6.51 5.2 2.92V15.4l-10.29-5.77z" fill="#3d281e"/><path d="M460.93 13.78L468.67 0H453.4l-1.35 2.42c3.06 3.74 6.02 7.58 8.88 11.36z" fill="#5c3c2e"/><path d="M453.4 0H450l2 2.42zm9.12 15.91l9.48 5.32 6.51-11.6L483.93 0h-15.26l-7.74 13.78c.53.71 1.07 1.42 1.59 2.13z" fill="#744c3a"/><path d="M472 21.23l-9.49-5.32q3.6 4.89 7 9.85l2.49-4.52z" fill="#3d281e"/><path d="M477.61 38.46q4.08 6.74 7.67 13.53l3.54-6.31v-15l-5.2-2.92z" fill="#5c3c2e"/><path d="M483.62 27.74L472 21.23l-2.53 4.52q4.26 6.3 8.13 12.7zM486 53.25c1 1.89 1.94 3.78 2.87 5.67V45.68L485.28 52z" fill="#744c3a"/><path d="M197.74 4.68c-.63-1.57-1.24-3.12-1.82-4.68h-6.52l3.46 1.94z" fill="#3d281e"/><path d="M173.32 36.8L190 7c-.89-2.34-1.73-4.66-2.53-7h-8.8l-17 30.28z" fill="#5c3c2e"/><path d="M161.72 30.28L178.71 0h-15.27l-13.33 23.77zm29.72 1.42l5.15-9.17Q193 14.71 190 7l-16.68 29.8 11.61 6.51zm-12.94-2.34l10.06-3.24-2.5 6.32L176 35.69z" fill="#744c3a"/><path d="M196.58 22.51l1.38-2.45 3.58-6.39z" fill="#744c3a"/><path d="M205 39.27c-.68-1.26-1.37-2.52-2-3.78q-3.41-6.48-6.37-13l-5.15 9.17L205 39.31z" fill="#5c3c2e"/><path d="M208.15 56.33l10.63 6c-5-7.62-9.58-15.29-13.73-22.94l-13.61-7.69-6.51 11.61 11.61 6.51zm11.62 6.49l4.43-7.9z" fill="#3d281e"/><path d="M235.92 71.88c-1.13-1.54-2.26-3.1-3.36-4.65l-1.18 2.1z" fill="#5c3c2e"/><path d="M231.38 69.33l1.18-2.1q-4.35-6.14-8.36-12.31l-4.43 7.9zM173 64.53l5.4-9.61-34.8-19.54L137.09 47l34.82 19.53zm-14.62-14.11a4.06 4.06 0 01-1.25-2.06 6 6 0 01-.23-1.22 5.84 5.84 0 011.24-.11 4.06 4.06 0 012.32.66A4.66 4.66 0 01162 51a4.73 4.73 0 01-3.62-.58z" fill="#5c3c2e"/><path d="M143.59 35.371l6.512-11.608 34.825 19.535-6.512 11.608zm28.32 31.149L137.09 47l-6.52 11.6 34.83 19.53zm-6.65-2.4a4.68 4.68 0 012.31 2.88 4.08 4.08 0 01-.44 2.37 6.39 6.39 0 01-.64 1.06 6.72 6.72 0 01-1-.75 4.08 4.08 0 01-1.29-2 4.74 4.74 0 011.06-3.56z" fill="#3d281e"/><path d="M245.64 98.27q-4.32-5.14-8.43-10.37l-24-13.45-6.51 11.61 17.5 9.82-.2-1.16 6.16 2.87.45 1.84 11 6.16 4.1-7.3 2.34-4.29z" fill="#5c3c2e"/><path d="M237.21 87.9v-.06q-9.49-12.09-17.7-24.5l-6.23 11.11zm10.84 6.08l2.16-3.84-2.14 3.82zm-17.49 5.45l4.36 17.71.12.06 6.51-11.61zm-23.83-13.37l-6.51 11.61 11.61 6.51 8.64 4.85 2.06-3.4 2.01 5.68 4.05 2.27-4.36-17.7zM293 134.45c-2-1.75-3.83-3.43-5.62-5.08a403.81 403.81 0 01-8.75-8.32l-2.28 4.06zm12 21.31q-8.18-6.42-16.19-13.44c-2.71-2.37-5.18-4.59-7.54-6.77s-4.68-4.38-7-6.62l-4.37 7.81 34.82 19.53.28-.5zm69.33 39.56l-11.6-6.51-5.81-3.26-17.4-9.76-.01.02 11.61 6.51 11.61 6.52 11.6 6.51.02-.03z" fill="#3d281e"/><path d="M176.996 84.635L196.53 49.81l11.608 6.511-19.535 34.826z" fill="#5c3c2e"/><path d="M196.54 49.82l-11.61-6.51-6.51 11.6-5.39 9.62-1.12 1.99-6.51 11.61 11.6 6.51zm22.93 13.51c-.23-.35-.47-.69-.69-1l-10.63-6-19.54 34.82 11.61 6.52 19.25-34.33z" fill="#744c3a"/><path d="M258.26 130.23l6.21-11.07q-4.86-5-9.52-10.21l-8.29 14.77z" fill="#5c3c2e"/><path d="M246.65 123.71l8.29-14.77q-4.76-5.27-9.28-10.64L235 117.2zm29.74 1.4l2.28-4.06-.01-.01-2.28 4.06zm-2.16 3.81l1.88-3.34-1.88 3.34q-4.78-4.62-9.39-9.37l-.37-.39-6.21 11.07 11.61 6.51 4.37-7.81z" fill="#744c3a"/><path d="M327.9 169.3l.02-.02-.02-.01-5.8-3.26-5.79-3.25-.01.03z" fill="#5c3c2e"/><path d="M307.92 158.09l8.38 4.7-8.38-4.7-2.92-2.32-.28.5 3.23 1.82zm31.59 17.72l.01-.02-.01-.01-11.59-6.5-.02.02z" fill="#744c3a"/><path d="M387.57 202.74l-1.62-.9 11.61 6.51 1.19-2.12c-3.7-1.01-7.43-2.23-11.18-3.49z" fill="#5c3c2e"/><path d="M385.94 201.83l-11.59-6.51-.02.03 11.61 6.51.01-.02zm30.06.9l-3.74 6.67q-5-.94-10.19-2.27c-1.09-.28-2.19-.57-3.29-.88l-1.19 2.12 11.61 6.51 2.94-5.24 3.87-6.9z" fill="#744c3a"/><path d="M122.636 99.926L142.171 65.1l11.609 6.512-19.535 34.825z" fill="#5c3c2e"/><path d="M111.039 93.416l19.535-34.825 11.608 6.512-19.535 34.825zm44.591 2.124l9.77-17.41-11.61-6.51-19.54 34.82 11.61 6.51 6.51-11.6z" fill="#744c3a"/><path d="M155.63 95.54l-3.26 5.81 34.82 19.53 6.52-11.61-34.83-19.53z" fill="#5c3c2e"/><path d="M177 84.64l-11.6-6.51-6.52 11.61 34.83 19.53 6.51-11.6-11.61-6.51zm-31.151 28.31l6.511-11.609 34.825 19.535-6.511 11.608z" fill="#3d281e"/><path d="M222.016 140.405l6.512-11.608 34.825 19.535-6.511 11.608z" fill="#5c3c2e"/><path d="M246.65 123.72l-11.61-6.52-.07.13.69 2.8-1.79-.84-5.34 9.52 34.82 19.54 6.52-11.61-11.61-6.51zm-31.143 28.293l6.512-11.608 34.825 19.535-6.512 11.608z" fill="#3d281e"/><path d="M298.18 167.88l-3.26 5.81-3.26 5.8 7.41 4.15 14.68-4.64 7.18 5.24-13.3 4.2 18.86 10.59 3.25-5.81 3.26-5.8z" fill="#5c3c2e"/><path d="M339.51 175.81l-1.65 2.94a345.28 345.28 0 01-29.94-20.66l-3.23-1.82-6.51 11.61L333 187.42l2.43-4.33 3.51-6.27.57-1z" fill="#3d281e"/><path d="M316.3 162.79l-8.38-4.7a345.28 345.28 0 0029.94 20.66l1.65-2.94-11.61-6.51z"/><path d="M307.63 188.44l-4.86 1.54-7.17-5.24 3.47-1.1-7.41-4.15-6.51 11.61 34.83 19.53 6.51-11.6z" fill="#3d281e"/><path d="M361.292 218.541l6.511-11.608 34.825 19.535-6.511 11.608z" fill="#5c3c2e"/><path d="M385.94 201.86l-11.61-6.51 13.24 7.42q-7.08-2.46-14.29-5.55v.06l-5.46 9.72 34.82 19.54 6.52-11.61-11.61-6.51zm-31.158 28.29l6.512-11.61 34.825 19.536-6.511 11.608z" fill="#3d281e"/><path d="M217.07 114.69l3.4-5.66-8.64-4.85L192.29 139l11.61 6.51 14.76-26.32z" fill="#5c3c2e"/><path d="M180.679 132.485l19.535-34.825 11.608 6.512-19.535 34.825zM229.5 117.25l-.91-3.67-4.05-2.27.26.72-5.46 9.06-.68-1.9-14.76 26.32 11.61 6.52 18.36-32.74zm5.47.08l.07-.13-.12-.06z" fill="#744c3a"/><path d="M261.78 178.738l19.567-34.74 11.58 6.522-19.567 34.74z" fill="#5c3c2e"/><path d="M269.87 136.74l-6.52 11.61-6.51 11.6-6.51 11.61 11.61 6.51 19.53-34.82zm25.05 36.95l9.77-17.41-11.61-6.52-19.54 34.83 11.61 6.51 6.51-11.61z" fill="#744c3a"/><path d="M362.73 188.84l-11.61-6.52zm-1.58 2.8q-5.88-2.89-11.79-6.17l-17.78 31.68 11.61 6.51z" fill="#5c3c2e"/><path d="M349.36 185.47q-5.75-3.19-11.5-6.72l1.08-1.93-3.51 6.27-5.69 10.13-3.25 5.78-6.49 11.63 11.61 6.52 17.78-31.68zm23.92 11.75q-6-2.58-12.13-5.58l-18 32 11.61 6.51 18.45-32.89zm-10.55-8.38l11.6 6.51z" fill="#744c3a"/><path d="M387.57 202.77l-13.24-7.42-1.05 1.87q7.22 3.09 14.29 5.55z"/><path d="M362.73 188.83l-11.61-6.51-1.76 3.15q5.91 3.27 11.79 6.17z" fill="#3d281e"/><path d="M351.12 182.32l-11.61-6.51-.57 1-1.08 1.93q5.76 3.52 11.5 6.72zm10.03 9.32q6.11 3 12.13 5.58l1.05-1.87-11.6-6.52zM201.54 13.67q-2-4.5-3.8-9l-4.88-2.74L190 7q2.94 7.71 6.54 15.52z" fill="#5c3c2e"/><path d="M192.86 1.94L189.4 0h-1.89c.8 2.32 1.64 4.64 2.53 7zM198 20.06l-1.38 2.45q3 6.46 6.37 13c.66 1.26 1.35 2.52 2 3.78l14.44 8.1q-5.53-9-10.28-18.06-1.1-2.08-2.14-4.17z" fill="#3d281e"/><path d="M207 25.14c-1.93-3.83-3.77-7.65-5.47-11.47L198 20.06zm-2 14.13c4.15 7.65 8.73 15.32 13.73 22.94l1 .56 4.43-7.9q-2.44-3.77-4.76-7.54z"/><path d="M245.64 98.27l2.41-4.27-10.9-6.12v.06q4.17 5.18 8.49 10.33z" fill="#3d281e"/><path d="M219.77 62.82l-.29.52q8.19 12.38 17.7 24.5L248.07 94l2.14-3.82q-7.49-9-14.29-18.26l-4.54-2.55zm56.61 62.28l-.27.48-1.88 3.34q3.47 3.36 7 6.62c2.36 2.18 4.83 4.4 7.54 6.77q8 7 16.19 13.44l4.3-7.67q-7.22-5.73-14.3-12l-1.96-1.63-16.65-9.34zm63.14 50.69l17.4 9.76 5.81 3.26 11.6 6.51 2.95-5.26A278.6 278.6 0 01342 171.29l-2.52 4.49z"/><path d="M219.47 63.33l.29-.52-1-.56c.24.39.48.75.71 1.08z" fill="#5c3c2e"/><path d="M254.93 108.93q4.65 5.18 9.52 10.21l4.47-8q-4.85-5.08-9.49-10.29z" fill="#3d281e"/><path d="M245.64 98.27q4.53 5.37 9.28 10.64l4.51-8.05q-4.72-5.31-9.23-10.74L248.05 94zm18.82 20.88l.37.39q4.59 4.74 9.39 9.37l1.88-3.34.27-.48 2.28-4.06q-3.89-3.81-7.63-7.67c-.71-.73-1.4-1.47-2.1-2.2z" fill="#5c3c2e"/><path d="M316.31 162.76l5.79 3.24 5.8 3.26 3-5.26q-5.48-3.72-10.91-7.74l-3.64 6.49z" fill="#3d281e"/><path d="M305 155.76l2.95 2.29 8.38 4.7 3.64-6.49q-5.37-4-10.68-8.18zm22.92 13.52l11.59 6.5 2.52-4.49q-5.59-3.48-11.18-7.28l-3 5.26z" fill="#5c3c2e"/><path d="M386 201.84l1.62.9c3.75 1.3 7.48 2.48 11.15 3.51l3.86-6.87q-6.36-1.86-12.86-4.28l-3.78 6.73z" fill="#3d281e"/><path d="M374.35 195.32l11.59 6.51 3.78-6.73q-6.18-2.28-12.44-5l-2.95 5.26zm24.39 10.93c1.1.31 2.2.6 3.29.88q5.18 1.34 10.19 2.27l3.74-6.67c-2.56-.52-5.13-1.11-7.75-1.79q-2.79-.72-5.63-1.56l-3.86 6.87z" fill="#5c3c2e"/><path d="M449.76 7.39c-.09-.1-.16-.21-.25-.32l.32.41q2.15 2.65 4.23 5.35l.61.81c1.18 1.54 2.35 3.08 3.49 4.64l1.21 1.65q1.47 2 2.88 4l1.13 1.61q1.69 2.45 3.33 4.9l.42.62c1.27 1.91 2.5 3.84 3.72 5.77.18.28.35.57.53.86 1 1.61 2 3.22 2.95 4.84.27.46.55.92.82 1.39q1.35 2.3 2.65 4.61l.67 1.18c1.07 1.93 2.12 3.86 3.13 5.8l.36.71c.63 1.22 1.25 2.45 1.86 3.67.29.58.57 1.15.85 1.73.53 1.07 1 2.15 1.54 3.22.26.54.51 1.07.76 1.61.59 1.28 1.16 2.55 1.72 3.83 0 .1.09.19.13.29V58.92c-.93-1.89-1.88-3.78-2.87-5.67l-.67-1.25q-3.6-6.8-7.67-13.53-3.87-6.39-8.13-12.7-3.36-5-7-9.85c-.52-.71-1.06-1.42-1.59-2.13-2.86-3.82-5.82-7.62-8.88-11.36L450 0h-6.43c2.13 2.45 4.19 4.91 6.19 7.39zm-248.22 6.28c1.7 3.82 3.54 7.64 5.47 11.47q1.05 2.09 2.14 4.17 4.72 9 10.28 18.06 2.31 3.78 4.76 7.54 4 6.18 8.36 12.31c1.1 1.55 2.23 3.11 3.36 4.65q6.78 9.24 14.29 18.26 4.5 5.43 9.23 10.74t9.49 10.29c.7.73 1.39 1.47 2.1 2.2q3.74 3.87 7.63 7.67c2.87 2.81 5.8 5.6 8.75 8.32 1.79 1.65 3.64 3.33 5.62 5.08l1.92 1.69q7.08 6.21 14.3 12 5.31 4.23 10.68 8.18t10.93 7.7q5.58 3.8 11.18 7.28a278.6 278.6 0 0035.25 18.77q6.27 2.76 12.44 5 6.5 2.42 12.86 4.28 2.84.84 5.63 1.56c2.62.68 5.19 1.27 7.75 1.79a126.63 126.63 0 0025.28 2.74c2.06 0 4.11-.06 6.1-.18 17.14-1.05 31.09-6.62 41.46-16.55v-7.16a52.755 52.755 0 01-3.41 3.61c-9.51 9.1-22.41 14.21-38.36 15.2a107.07 107.07 0 01-18.87-.64 93 93 0 01-17.88-3.36l-.86-.21c-35-9-74.56-31.57-111.25-63.74-2.49-2.19-5-4.42-7.44-6.7-5.47-5-10.89-10.33-16.19-15.8q-8.91-9.21-17.06-18.76a21.88 21.88 0 01-9.36-5.83 15.06 15.06 0 01-2.2-3.28 9.21 9.21 0 01-.6-5.86 354.4 354.4 0 01-20.85-30q-3-4.78-5.72-9.59-2.75-4.75-5.26-9.57c-.55-1.06-1.08-2.12-1.62-3.18-.25-.49-.51-1-.75-1.46-.45-.88-.87-1.76-1.3-2.64l-1.07-2.21c-.4-.83-.78-1.66-1.17-2.49s-.73-1.57-1.08-2.35-.72-1.62-1.08-2.43-.7-1.59-1-2.39-.68-1.6-1-2.41l-.78-1.88c-.07-.18-.13-.35-.2-.52-.32-.79-.64-1.58-.94-2.37-.1-.23-.19-.47-.28-.7h-5.25c.58 1.56 1.19 3.11 1.82 4.68q1.75 4.51 3.75 9.02z" fill="#fff"/><path d="M454.06 12.83q-2.08-2.7-4.23-5.35 2.17 2.66 4.23 5.35z" fill="#ffe1d6"/><path d="M395.43 25c.05.66.09 1.33.14 2 .91 11.7 2.66 21.31 8.45 25.18l.24.16c2.74 1.72 5.59 3.41 8.51 5.1l-1.84-8.08 3.91 1.93 1.91 8.41q2.72 1.55 5.46 3.06c29.68-2.84 47.55-30.68 27.53-55.35-2-2.48-4.06-4.94-6.15-7.39h-36.53c-.1 7.25-6.82 15.94-10 22.11a30.8 30.8 0 01-1.63 2.87zm-73.11 18.31L322 43h-.1l.3.27zm157.53 75.26v.86l-20 20-.55-4.88-9.47 9.45a64.47 64.47 0 014.82 6v.05c24.15-12.31 39.76 10.9 14.55 36.11-11.44 11.44-26 14.8-41.06 13.59a107.07 107.07 0 0018.87.64c15.95-1 28.85-6.1 38.36-15.2 1.2-1.15 2.33-2.36 3.41-3.61v-65.22a69.88 69.88 0 01-9 2.21zM243.72 58l-2.54 6.58-3.35-5.92 1.63-4.23c-.81-.72-1.62-1.45-2.41-2.2v.12a20.25 20.25 0 00-12.58-6.09 354.4 354.4 0 0020.85 30c.64-3.71 2.84-8.13 6.35-12.59a87.56 87.56 0 01-7.95-5.67zm219.66-32.44q1.69 2.45 3.33 4.9-1.63-2.46-3.33-4.9z" fill="#ffe1d6"/><path d="M459.37 19.93q1.47 2 2.88 4-1.41-1.99-2.88-4zm-4.7-6.29c1.18 1.54 2.35 3.08 3.49 4.64-1.16-1.56-2.31-3.1-3.49-4.64zM482 56.24l-.36-.71c-1-1.94-2.06-3.87-3.13-5.8q1.61 2.9 3.12 5.8c.09.23.21.47.37.71zm-6.85-12.3q1.35 2.3 2.65 4.61-1.3-2.31-2.65-4.61zm-8.02-12.86zm4.25 6.63c1 1.61 2 3.22 2.95 4.84-.96-1.62-1.95-3.23-2.95-4.84zm14.83 27.15zm-2.39-4.95zm5 10.69c0-.1-.09-.19-.13-.29zM204.38 7.88c-.34-.8-.68-1.6-1-2.41.32.81.62 1.61 1 2.41zM201.45.7c.3.79.62 1.58.94 2.37-.33-.81-.64-1.59-.94-2.37zM213.5 27c-.56-1.05-1.1-2.11-1.63-3.17.54 1.06 1.07 2.12 1.62 3.18q2.52 4.78 5.27 9.59-2.76-4.78-5.26-9.6zm10.99 19.22q-3-4.78-5.72-9.59 2.75 4.8 5.72 9.59zm-15.74-28.68c-.4-.83-.78-1.66-1.17-2.49.42.83.77 1.66 1.17 2.49zm2.37 4.85c-.45-.88-.87-1.76-1.3-2.64.43.88.85 1.76 1.3 2.64zm-4.62-9.69c-.37-.81-.72-1.62-1.08-2.43.36.81.71 1.62 1.08 2.43zm202.94 183.49c-35-9-74.56-31.58-111.25-63.75 8.66-9 37.36 22.71 40.27 6.81a16.37 16.37 0 01.22-1.88c1.57-9.44 10.58-15.59 23.45-15 14.35.64 24.47 12.26 35.07 22.61-4.66-6.81-9.79-14.94-15.59-23.2C361.07 96 316 147.6 296.08 97.48c-.4-1-.73-2-1-2.88-3.32.05-6.57.06-9.73 0l.56 7.22-5.59-3.82-.26-3.44c-8.73-.3-16.5-1.18-22.56-3.32q8.14 9.54 17.06 18.76c5.3 5.47 10.72 10.75 16.19 15.8 2.46 2.28 4.95 4.51 7.44 6.7 36.69 32.17 76.27 54.72 111.25 63.74l.86.21-.89-.25z" fill="#ffe1d6"/><path d="M410.94 49.33l1.84 8.08c1.31.75 2.64 1.51 4 2.26l-1.91-8.41z" fill="#ffcf70"/><path d="M275.06 30.78h-.14.12zM237.05 52.2c.79.75 1.6 1.48 2.41 2.2l2.17-5.64 3.37 5.92-1.28 3.32a87.56 87.56 0 008 5.66c.65-.82 1.33-1.63 2.06-2.44.35-.39.7-.78 1.07-1.16l.09-.1c1.13-1.18 2.35-2.35 3.65-3.49l.16-.14 1.21-1 .12-.1c.9-.74 1.84-1.47 2.81-2.19l.2-.15 1.26-.89.27-.19c.48-.33 1-.65 1.47-1 .53-.34 1.06-.68 1.61-1l.16-.1A120.16 120.16 0 01238 28.14a2.82 2.82 0 01-.46-.45c-1.74-2.21 3.43-5 10.21-6.8-10.74-4.75-19.44-10-26-16.11A52.92 52.92 0 01217.19 0h-5.06l16.66 10.44zM202.38 3.05c.07.17.13.34.2.52zM487 66.47c-.25-.54-.5-1.07-.76-1.61-.5-1.07-1-2.15-1.54-3.22-.28-.58-.56-1.15-.85-1.73-.61-1.22-1.23-2.45-1.86-3.67-.12-.24-.24-.48-.37-.71q-1.51-2.91-3.12-5.8l-.67-1.18q-1.31-2.31-2.65-4.61c-.27-.47-.55-.93-.82-1.39-1-1.62-1.95-3.23-2.95-4.84-.18-.29-.35-.58-.53-.86-1.22-1.93-2.45-3.86-3.72-5.77l-.42-.62q-1.63-2.46-3.33-4.9L462.25 24q-1.41-2-2.88-4l-1.21-1.65c-1.14-1.56-2.31-3.1-3.49-4.64l-.61-.81q-2.08-2.7-4.23-5.35l-.32-.41c.09.11.16.22.25.32 20 24.67 2.15 52.51-27.53 55.35 6.61 3.67 13.33 7.33 19.75 11.12l-.34-3.59 3.9 1.93.38 4c16.81 10.28 30.73 21.58 33.45 36.06a28.65 28.65 0 01.45 6.25 69.88 69.88 0 009-2.21V70.6l-.13-.3c-.56-1.3-1.13-2.55-1.69-3.83zm-26 2.71a3.94 3.94 0 01-1.3 1.95 6.2 6.2 0 01-1 .7 6.14 6.14 0 01-.59-1 4 4 0 01-.38-2.32 4.56 4.56 0 012.32-2.71 4.55 4.55 0 01.95 3.38zM471.76 78l.24-5.74 7.13-5.37-.24 5.73zM393.82 1c.13 1.27.25 2.55.35 3.83v.18c.21 2.61.38 5.22.53 7.8.24 4.08.44 8.08.7 11.9v.27a30.8 30.8 0 001.6-2.87c3.2-6.17 9.92-14.86 10-22.11h-4.35a3.32 3.32 0 01.44 1.33 4.56 4.56 0 01-1.49 3.24 4.58 4.58 0 01-1.85-3.05 3.36 3.36 0 01.41-1.52h-6.44l.06.55c.01.14.03.28.04.45z" fill="#870f00"/><path d="M332.12 94.51c-2.62-.12-5.27-.19-7.94-.23-9.72-.13-19.68.2-29.12.32.29.93.62 1.88 1 2.88 19.95 50.12 65-1.44 85.53 24.28a186.53 186.53 0 00-17-21.17c-9.08-3.94-20.41-5.53-32.47-6.08zm-13.71 11.13l2 3.88-3.16 5.19-2-3.88zM322 107l-.83-10.54 5.57 3.89.83 10.55z" fill="#0f462d"/><path d="M283.28 82.35c19.93 8 32.42 11.06 40.9 11.93 2.67 0 5.32.11 7.94.23 12.06.55 23.39 2.14 32.51 6.08a97 97 0 00-14-12.39 1.62 1.62 0 011.32-2.89A78.08 78.08 0 01362.53 89c-.77-1.35-1.56-2.7-2.34-4.07l-.15-.26c-4.83-8.54-16.11-20.23-29.74-33.58l-4.65-4.52 19 19a133.08 133.08 0 01-22.76-.57l-.62 5.79-3.09-3.06.33-3.09c-3.43-.41-7.1-.95-10.95-1.67-19.77 14.39-39.15 11.12-55.86.66-3.51 4.46-5.71 8.88-6.35 12.59a9.21 9.21 0 00.6 5.86 15.06 15.06 0 002.2 3.28c9.22 7.09 8.06-13.94 35.13-3.01zm40.13-37.99l-1.09-1h-.09zm-69.64 16.81c.35-.39.7-.78 1.07-1.16-.37.38-.72.77-1.07 1.16zm4.81-4.75zm6.03-4.69c.48-.33 1-.65 1.47-1-.5.35-.99.67-1.47 1zm1.49-.99l1.61-1c-.55.32-1.08.66-1.61 1zm-3.02 2.07l1.26-.89zM251.7 63.62c.64-.82 1.33-1.63 2.06-2.44-.76.82-1.41 1.62-2.06 2.44zm8.37-8.47c.9-.74 1.84-1.47 2.81-2.19-.97.72-1.88 1.45-2.81 2.19zm-1.33 1.13l1.21-1z" fill="#156a41"/><path d="M318.18 67.72l3.09 3.06.62-5.79c-1.1-.1-2.23-.23-3.38-.36z" fill="#ffcf70"/><path d="M307.56 63a146.18 146.18 0 01-39.69-13.33l-.16.1-1.61 1c-.5.33-1 .65-1.47 1l-.27.19-1.26.89-.2.15c-1 .72-1.91 1.45-2.81 2.19l-.12.1-1.21 1-.16.14c-1.3 1.14-2.52 2.31-3.65 3.49l-.09.1c-.37.38-.72.77-1.07 1.16-.73.81-1.42 1.62-2.06 2.44 16.68 10.46 36.06 13.73 55.83-.62z" fill="#5a0a00"/><path d="M405.36 59.78l-.65-.46.63.45zM401 56.69l.52.37z" fill="#156a41"/><path d="M404 52.15c-5.79-3.87-7.54-13.48-8.45-25.18-.05-.65-.09-1.32-.14-2v-.27.27a8.78 8.78 0 01-3.84 3.51 5.94 5.94 0 01-1.47.4 5.72 5.72 0 01-1.49 0 6.33 6.33 0 01-1.48-.33 6.15 6.15 0 01-.71-.28 8.27 8.27 0 01-1.36-.76l-.62-.47a8.83 8.83 0 01-2.71-3.82c-.83-2.39-.32-3.84.8-4.95.21-.2.43-.39.67-.58 2.29-1.74 6-2.83 7.36-6.41 1-2.61.5-7.14.58-11.27h-22.07c2.18 12.61 4.69 25.89 16.76 38.2 4.84 4.91 11.17 9.5 18.17 13.94zm-9.29-39.37zm-.54-7.98c-.1-1.28-.22-2.56-.35-3.83.18 1.27.25 2.55.35 3.83zm-.45-4.8l.06.55z" fill="#0f462d"/><path d="M353.63 7.49c.45 1.59.9 3.15 1.36 4.71q.35 1.25.72 2.46a5.52 5.52 0 00.16.54c12 15.66 29.72 30.14 43.28 40.11-9-6.75-17.54-14.59-23.62-25.64C365.58 11.56 360.54 3.54 358 0h-6.2c0 .26-.09.52-.12.79.69 2.26 1.32 4.49 1.95 6.7z" fill="#0f462d"/><path d="M393.05 68.62l49.55 28.6c-.09-.28-.21-.54-.31-.81-.24-.63-.48-1.26-.75-1.87-.17-.39-.35-.76-.53-1.14s-.46-1-.71-1.49l-.61-1.13q-.37-.69-.78-1.38l-.66-1.07c-.29-.46-.59-.9-.89-1.35s-.44-.65-.67-1c-.35-.5-.72-1-1.09-1.45-.2-.26-.39-.52-.59-.77a37.5 37.5 0 00-1.72-2c-.25-.27-.5-.53-.74-.8l-1.15-1.23-.92-.91c-.35-.35-.7-.69-1.07-1l-1-.94-1.05-.94c-.36-.31-.71-.63-1.08-.93s-.67-.57-1-.85l-1.18-1-.63-.5c-1.15-.91-2.33-1.81-3.52-2.69h-.05l-2-1.45-.2-.14c-.7-.5-1.4-1-2.11-1.49-3.35-2.35-6.79-4.67-10.23-7.07l-.63-.45c-1.06-.74-2.11-1.49-3.16-2.26l-.52-.37-1.68-1.23-.2-.15c-13.56-10-31.31-24.45-43.28-40.11v.09c.19.69.4 1.37.61 2.06.4 1.34.81 2.67 1.22 4s.9 2.84 1.35 4.24l.3.9c.32 1 .64 1.92 1 2.86z" fill="#156a41"/><path d="M393.05 68.62l-32.71-39.29.24.71c.19.52.36 1 .55 1.54 0 .08.05.15.07.22.19.52.38 1 .56 1.54s.39 1.07.6 1.6.35.93.53 1.39c.36.92.73 1.84 1.1 2.72.16.41.33.82.51 1.22s.33.8.51 1.19c.34.79.7 1.57 1.06 2.31.17.38.35.75.53 1.11s.36.73.54 1.08c.28.56.57 1.11.86 1.64 3.27 6 6.91 10.55 11.18 13z" fill="#0f462d"/><path d="M468.79 119.75c-1.22.06-2.44.08-3.67.09a47.14 47.14 0 012.57 6.29l-8.42 8.42.55 4.88 20-20v-.86a81.81 81.81 0 01-11.03 1.18zm10.61-7.45a27.59 27.59 0 01.48 6.27 28.65 28.65 0 00-.48-6.27zm-80.25-56.99l.2.15 1.65 1.23.52.37c1.05.77 2.1 1.52 3.16 2.26l.65.46c3.44 2.4 6.88 4.72 10.23 7.07.71.49 1.41 1 2.11 1.49-2.8-2-5.68-4-8.59-6a54.86 54.86 0 0013.11.37q-2.75-1.51-5.46-3.06c-1.34-.75-2.67-1.51-4-2.26-2.92-1.69-5.77-3.38-8.51-5.1l-.24-.16c-7.06-4.44-13.36-9-18.2-13.95C373.76 25.89 371.25 12.61 369.07 0H358c2.5 3.54 7.54 11.56 17.49 29.67 6.12 11.05 14.64 18.89 23.66 25.64zm43.14 41.1c.1.27.22.53.31.81-.09-.28-.21-.53-.31-.81zm-11.81-17.6l.92.91zm9.82 13.1l-.61-1.13zm-16.84-19.26zm1.81 1.47l-1.18-1zm13.64 15.28l-.66-1.07zm-19.02-19.47l-2-1.45zm21.65 24.61c-.17-.39-.35-.76-.53-1.14.18.38.36.75.53 1.14zM427.36 75.9c-.36-.31-.71-.63-1.08-.93.37.3.72.62 1.08.93zm10 11.1c-.22-.32-.44-.65-.67-1 .23.33.45.66.67 1zm-1.76-2.44c-.2-.26-.39-.52-.59-.77.2.21.39.51.59.77zm-6.19-6.78l-1-.94zm3.88 3.97c-.25-.27-.5-.53-.74-.8.24.27.45.53.74.8z" fill="#05a357"/><path d="M445.54 72.2l-3.9-1.93.34 3.59q2 1.17 3.94 2.36z" fill="#ff6937"/><path d="M468.79 119.75zm-48.9-49.82h.05c1.19.88 2.37 1.78 3.52 2.69l.63.5 1.18 1c.34.28.68.56 1 .85s.72.62 1.08.93l1.05.94 1 .94c.37.34.72.68 1.07 1l.92.91 1.16 1.31c.24.27.49.53.74.8.59.67 1.16 1.35 1.72 2 .2.25.39.51.59.77.37.48.74 1 1.09 1.45.23.32.45.65.67 1s.6.89.89 1.35l.66 1.07q.4.69.78 1.38l.61 1.13c.25.49.48 1 .71 1.49s.36.75.53 1.14c.27.61.51 1.24.75 1.87.1.28.22.53.32.81l2.94 1.7c.28.16.54.34.81.5a43.05 43.05 0 0122.43 20.33 81.81 81.81 0 0011.06-1.17 27.59 27.59 0 00-.48-6.27c-2.72-14.48-16.64-25.78-33.45-36.06Q444 75 442 73.86c-6.42-3.79-13.14-7.45-19.75-11.12a54.86 54.86 0 01-13.11-.37c2.91 2 5.79 4 8.59 6l.2.14z" fill="#5a0a00"/><path d="M468.79 119.75a43.05 43.05 0 00-22.43-20.33 49.59 49.59 0 019.42 7.35 49.06 49.06 0 019.34 13.06c1.22 0 2.45 0 3.67-.08z" fill="#5a0a00"/><path d="M221.78 4.8c6.6 6.12 15.3 11.36 26 16.11l27.1 9.83h.14c16-.44 28.53-4.21 46.87 12.22h.1c-6.95-6.73-14.26-13.78-21.46-21-3.67-1.67-7.8-3.75-12.11-6.22l-6.7.65L274.28 9l3.1-.3A109.36 109.36 0 01266.7 0h-49.51a52.92 52.92 0 004.59 4.8zm15.65-2.35a6.11 6.11 0 01.2-1.19 6.29 6.29 0 011.17.33A3.91 3.91 0 01240.7 3a4.61 4.61 0 01.3 3.51 4.57 4.57 0 01-3.1-1.76 4 4 0 01-.47-2.3z" fill="#06c167"/><path d="M281.05 8.34l7.48 7.48h-.07c4.31 2.47 8.44 4.55 12.11 6.22-4-4-8-8-11.86-12.12q-2.79-2.92-5.48-5.86C282 2.71 280.77 1.35 279.56 0H266.7a109.36 109.36 0 0010.68 8.7z" fill="#156a41"/><path d="M351.84 0h-.34l.22.79c.03-.27.08-.53.12-.79z" fill="#06c167"/><path d="M280.32 98l5.57 3.9-.56-7.22c-1.79 0-3.55-.06-5.27-.12z" fill="#ffcf70"/><path d="M280.06 94.51c1.72.06 3.48.1 5.27.12h9.73c9.44-.12 19.4-.45 29.12-.32-8.48-.87-21-3.89-40.9-11.93-27.07-10.93-25.91 10.1-35.14 3a21.88 21.88 0 009.36 5.83c6.06 2.12 13.83 3 22.56 3.3z" fill="#05a357"/><path d="M307.56 63c3.85.72 7.52 1.26 10.95 1.67 1.15.13 2.28.26 3.38.36a133.08 133.08 0 0022.73.51l-19-19-2.24-2.17-1.18-1.09-.3-.27c-18.34-16.43-30.87-12.66-46.87-12.22-23.8 1-34.22-.47-37-2.64a120.16 120.16 0 0029.84 21.49A146.18 146.18 0 00307.56 63z" fill="#0f462d"/><path d="M288.71 9.93c3.86 4.07 7.85 8.12 11.86 12.12 7.2 7.19 14.51 14.24 21.46 21l.29.29 1.09 1 2.24 2.17 4.65 4.52a69.09 69.09 0 01-6.21-7.55c-5.71-8.06-8.71-16.4-11.78-28.3C311.15 10.7 310 5.69 308.65 0h-29.09c1.21 1.35 2.43 2.71 3.67 4.06q2.68 2.94 5.48 5.87z" fill="#05a357"/><path d="M353.63 7.49c-.63-2.21-1.26-4.44-1.91-6.7L351.5 0c.08.27.15.54.23.82.63 2.24 1.27 4.47 1.9 6.67zm5.45 18.08c-.45-1.4-.9-2.8-1.35-4.24.45 1.44.9 2.85 1.35 4.24zm1.26 3.76c-.32-.94-.64-1.89-1-2.86q.86 2.63 1.75 5.11c-.19-.51-.36-1-.55-1.54zm2.02 5.61c-.21-.53-.41-1.06-.6-1.6s-.37-1-.56-1.54q.84 2.32 1.69 4.53c-.18-.46-.36-.92-.53-1.39zm-38.27 8.56a69.09 69.09 0 006.21 7.55c13.63 13.35 24.91 25 29.74 33.58l.15.26-24.19-42c-3.6-6.25-1.37-7.79 4.52-4.51 1.27.71 6.93 4 15 8.61l.45-4.8 4.07 4-.3 3.19 19.45 11.2c-4.27-2.47-7.91-7-11.18-13-.07-.07-.78-.76-2.14-2-2.25-2.13-6.27-5.89-12.17-11.31q-6.45-6-16-14.58-3.42-3.11-7.25-6.55a26 26 0 01-3.94-4.38A17.48 17.48 0 01323.23 0h-14.58c1.33 5.69 2.5 10.7 3.66 15.2 3.07 11.9 6.07 20.24 11.78 28.3z" fill="#156a41"/><path d="M365.24 90.07l4.76-1.4a6.57 6.57 0 012-4.12c13.71-13.12 42.62-8.4 56.47 21.9s20.6 9.42 37 21.88L449.83 144l9.44-9.44 8.42-8.42a47.14 47.14 0 00-2.57-6.29 49.06 49.06 0 00-9.34-13.06 49.59 49.59 0 00-9.42-7.35c-.27-.16-.53-.34-.81-.5l-2.94-1.7-49.55-28.6-13.87-8-19.45-11.2-.53 5.7-4.07-4 .38-4.09c-8.08-4.65-13.74-7.9-15-8.61-5.89-3.28-8.12-1.74-4.52 4.51l24.21 42c.78 1.37 1.57 2.72 2.34 4.07zm69.32 13.29a4 4 0 011.78 1.53 6 6 0 01.58 1 6.2 6.2 0 01-1.11.47 4 4 0 01-2.34.1 4.59 4.59 0 01-2.44-2.61 4.62 4.62 0 013.53-.49zm-65.63-27.19a4.58 4.58 0 01-1.85-3 3.93 3.93 0 01.73-2.23 6.38 6.38 0 01.76-.94 5.92 5.92 0 01.86.85 4 4 0 011 2.13 4.56 4.56 0 01-1.5 3.19z" fill="#05a357"/><path d="M372.29 93.17a364.22 364.22 0 0147.51 26.22l-.39-5 5.57 3.9.38 4.84c9.55 6.7 18.17 13.78 24.47 20.81l15.66-15.66c-16.39-12.46-23.14 8.43-37-21.88s-42.76-35-56.47-21.9a6.57 6.57 0 00-2 4.12l4.8-1.42z" fill="#5a0a00"/><path d="M419.41 114.44l.39 5q2.82 1.88 5.56 3.79l-.38-4.84z" fill="#ff6937"/><path d="M275 30.78h-.12l-27.1-9.83c-6.78 1.79-11.95 4.59-10.21 6.8a2.82 2.82 0 00.46.45c2.79 2.11 13.21 3.56 36.97 2.58z" fill="#156a41"/><path d="M454.69 150.06v-.05a.1.1 0 000 .05zm-29.33-26.88q-2.75-1.92-5.56-3.79a364.22 364.22 0 00-47.51-26.22l-.15.34L362 96.5l2.65-6.25.59-.18-2.71-1.07a78.08 78.08 0 00-10.62-3.65 1.62 1.62 0 00-1.32 2.89 97 97 0 0114 12.39 186.53 186.53 0 0117 21.17c5.8 8.26 10.93 16.39 15.59 23.2l1.17 1.13.33.32.88.84.43.4.8.74.46.42.78.7.48.43.79.68.47.41.84.69.43.36 1 .77.3.24c.44.33.87.66 1.31 1l.19.14q.56.41 1.11.78l.44.29.89.58.51.32.84.5.55.31.83.46.57.29.85.41.56.27.9.38.53.23 1.05.38c.14.05.27.11.41.15.49.17 1 .32 1.49.47h.19c.44.12.88.23 1.33.33l.51.1 1 .2.6.08 1 .13.65.05c.33 0 .65.05 1 .06h2.34l1.07-.07.64-.05c.41 0 .81-.09 1.22-.15l.53-.07c.6-.09 1.19-.2 1.8-.33h.11c.57-.12 1.14-.27 1.72-.42l.61-.18c.42-.12.85-.25 1.27-.39l.74-.25 1.2-.44.79-.32c.39-.16.79-.32 1.19-.5l.82-.37c.41-.18.82-.38 1.23-.58l.83-.42 1.3-.69.8-.44 1.48-.87.67-.4c.73-.45 1.47-.92 2.21-1.41.53-.35 1-.68 1.57-1 .95-.58 1.89-1.14 2.79-1.63a64.47 64.47 0 00-4.82-6c-6.23-7.06-14.85-14.18-24.4-20.88z" fill="#05a357"/><path d="M330.46 13.11l7.25 6.55q9.53 8.63 16 14.58c5.9 5.42 9.92 9.18 12.17 11.31 1.36 1.28 2.07 2 2.14 2-.29-.53-.58-1.08-.86-1.64q-.27-.52-.54-1.08c-.18-.36-.36-.73-.53-1.11-.36-.74-.72-1.52-1.06-2.31-.18-.39-.35-.79-.51-1.19s-.35-.81-.51-1.22c-.37-.88-.74-1.8-1.1-2.72q-.86-2.2-1.69-4.53c0-.07-.05-.14-.07-.22q-.9-2.49-1.75-5.11l-.3-.9c-.45-1.39-.9-2.8-1.35-4.24s-.82-2.64-1.22-4c-.21-.69-.42-1.37-.61-2.06v-.09a5.52 5.52 0 01-.16-.54q-.37-1.21-.72-2.46c-.46-1.56-.91-3.12-1.36-4.71-.64-2.2-1.27-4.43-1.91-6.67-.08-.28-.15-.55-.23-.82h-28.31a17.48 17.48 0 003.29 8.73 26 26 0 003.94 4.45zm9.14-6.76a3.93 3.93 0 01-2 1.19 4.56 4.56 0 01-3.37-1.17 4.58 4.58 0 012.86-2.14 4 4 0 012.28.51 6.27 6.27 0 011 .66 5.67 5.67 0 01-.77.95zm6.4 2.22a5.74 5.74 0 01.29 1.17 3.89 3.89 0 01-.27 2.32 4.51 4.51 0 01-3 2 4.59 4.59 0 010-3.56 3.86 3.86 0 011.87-1.5 5.6 5.6 0 011.11-.43zm44.58 2.7c-1.35 3.58-5.07 4.67-7.36 6.41-.24.19-.46.38-.67.58-1.12 1.11-1.63 2.56-.8 4.95a8.83 8.83 0 002.71 3.79l.62.47a8.27 8.27 0 001.36.76 6.15 6.15 0 00.71.28 6.33 6.33 0 001.48.33 5.72 5.72 0 001.49 0 5.94 5.94 0 001.47-.4 8.78 8.78 0 003.84-3.44v-.27c-.26-3.82-.46-7.82-.7-11.9-.15-2.58-.32-5.19-.53-7.8v-.18c-.1-1.28-.22-2.56-.35-3.83V.6l-.13-.6h-2.56c-.08 4.13.4 8.66-.58 11.27z" fill="#5a0a00"/><path d="M298.19 132.44c36.69 32.17 76.27 54.73 111.25 63.75-29.53-8.64-56.82-29.32-62-35.4-6.66-7.82-9.34-15.27-9-21.5-2.89 15.86-31.59-15.87-40.25-6.85zm40.49 4.93v-.01z" fill="#870f00"/><path d="M457.73 68.46a4 4 0 00.38 2.32 6.14 6.14 0 00.59 1 6.2 6.2 0 001-.7 3.94 3.94 0 001.3-1.95 4.55 4.55 0 00-.95-3.43 4.56 4.56 0 00-2.32 2.76zM340.36 5.4a6.27 6.27 0 00-1-.66 4 4 0 00-2.28-.51 4.58 4.58 0 00-2.86 2.14 4.56 4.56 0 003.37 1.17 3.93 3.93 0 002-1.19 5.67 5.67 0 00.76-.93zM241 6.51a4.61 4.61 0 00-.3-3.51 3.91 3.91 0 00-1.89-1.37 6.29 6.29 0 00-1.17-.33 6.11 6.11 0 00-.2 1.19 4 4 0 00.45 2.3A4.57 4.57 0 00241 6.51zM369.44 70.8a5.92 5.92 0 00-.86-.85 6.38 6.38 0 00-.76.94 3.93 3.93 0 00-.73 2.23 4.58 4.58 0 001.85 3 4.56 4.56 0 001.49-3.24 4 4 0 00-.99-2.08zm32.22-66.23a4.56 4.56 0 001.49-3.24 3.32 3.32 0 00-.44-1.33h-2.55a3.36 3.36 0 00-.35 1.52 4.58 4.58 0 001.85 3.05zM343.1 10.5a4.59 4.59 0 000 3.56 4.51 4.51 0 003-2 3.89 3.89 0 00.27-2.32 5.74 5.74 0 00-.37-1.16 5.6 5.6 0 00-1.13.41 3.86 3.86 0 00-1.77 1.51z" fill="#fff2d9"/><path d="M202.38 3.05l.21.54.78 1.88c.33.81.67 1.61 1 2.41s.69 1.59 1 2.39.71 1.62 1.08 2.43.72 1.56 1.08 2.35.77 1.66 1.17 2.49l1.07 2.21c.43.88.85 1.76 1.3 2.64.24.49.5 1 .75 1.46.53 1.06 1.07 2.12 1.63 3.17q2.5 4.8 5.26 9.6 2.74 4.8 5.72 9.59a20.25 20.25 0 0112.58 6.09v-.12l-8.26-41.76L212.13 0h-11c.09.23.18.47.28.7.34.78.65 1.56.97 2.35z" fill="#870f00"/><path d="M281.05 8.34l-3.67.36-3.1.3 7.48 7.48 6.7-.65.07-.01zm40.09 88.08l.83 10.55 5.57 3.9-.83-10.55zm40.86.08l10.14-2.99.15-.34 2.51-5.92-4.8 1.42-4.76 1.4-.59.18z" fill="#ffcf70"/><path d="M479.13 66.89L472 72.26l-.24 5.74 7.13-5.38z" fill="#ff6937"/><path d="M359.2 55.12l.54-5.7.29-3.19-4.07-4.04-.45 4.79-.38 4.1zm-38.82 54.4l-1.98-3.88-3.15 5.19 1.97 3.88z" fill="#ffcf70"/><g fill="#870f00"><path d="M469.24 186.17c25.21-25.21 9.6-48.42-14.55-36.11a36.75 36.75 0 014.48 8.35l-19.71 19.71c-13.24-1.66-19.31-5.55-28.4-15.7-.7-.78-1.42-1.6-2.16-2.45-1.48-1.71-3-3.58-4.75-5.62-2.2-2.64-4.51-5.84-6.95-9.39-10.6-10.35-20.72-22-35.07-22.61-12.87-.58-21.88 5.57-23.45 15a16.37 16.37 0 00-.22 1.88c-.37 6.23 2.31 13.68 9 21.5 5.16 6.08 32.45 26.76 62 35.4l.89.25a93 93 0 0017.88 3.36c15.01 1.26 29.57-2.13 41.01-13.57zm-42.92 1.51l-3.16 5.19-2-3.88 3.16-5.19zm-42.54-19.63a6.11 6.11 0 011.12.46 6.13 6.13 0 01-.57 1.06 4 4 0 01-1.77 1.55 4.59 4.59 0 01-3.53-.52 4.63 4.63 0 012.41-2.64 3.93 3.93 0 012.34.09zM350.5 145.8l-.57-6.06 3.9 1.94.57 6zm20-9.1a4 4 0 011.78 1.53 6 6 0 01.58 1.05 6.2 6.2 0 01-1.11.47 4 4 0 01-2.34.1 4.59 4.59 0 01-2.44-2.61 4.62 4.62 0 013.52-.54zm76.88 17.77l.67-.4zm-16.38 6.3l.53-.07zm-3.64.29h.67zm1.74-.06l.64-.05zm4.19-.63h.11zm-12.37.04l.51.1zm14.2-.49l.61-.18zm-12.65.79l.6.08zm1.58.21l.65.05zm12.95-1.57l.74-.25zm-17.6.65h.19z"/><path d="M450.29 152.64c.53-.35 1-.67 1.57-1-.52.36-1.04.65-1.57 1zm-23.94 8.42h-.67zm18.75-5.28l.8-.44zm-2.1 1.11l.83-.42zm-4.06 1.77l.79-.32zm1.98-.82l.82-.37zm-25 .97l.53.23zm-12.57-8.17l.47.41zm2.72 2.23l.3.24zm-3.99-3.34l.48.43zm-2.47-2.26l.43.4zm1.23 1.14l.46.42zm-2.44-2.3l.33.32zm9.28 7.97l.19.14zm-3.02-2.34l.43.36zM409 155l.44.29zm4 2.46l.57.29zm4.5 1.96c.14.05.27.11.41.15-.14-.04-.27-.1-.41-.15zm-3.04-1.26l.56.27zm-4.15-2.29l.51.32zm1.35.82l.55.31z"/></g><path d="M450.29 152.64c-.74.49-1.48 1-2.21 1.41l-.67.4-1.48.87-.8.44-1.3.69-.83.42c-.41.2-.82.4-1.23.58l-.82.37c-.4.18-.8.34-1.19.5l-.79.32-1.2.44-.74.25c-.42.14-.85.27-1.27.39l-.61.18c-.58.15-1.15.3-1.72.42h-.11c-.61.13-1.2.24-1.8.33l-.53.07c-.41.06-.81.11-1.22.15l-.64.05-1.13.08h-2.34c-.33 0-.65 0-1-.06l-.65-.05-1-.13-.6-.08-1-.2-.51-.1c-.45-.1-.89-.21-1.33-.33h-.19c-.5-.15-1-.3-1.49-.47-.14 0-.27-.1-.41-.15l-1.05-.38-.53-.23-.9-.38-.56-.27-.85-.41-.57-.29-.83-.46-.55-.31-.84-.5-.51-.32-.89-.58-.4-.3q-.56-.37-1.11-.78l-.19-.14c-.44-.31-.87-.64-1.31-1l-.3-.24-1-.77-.43-.36-.84-.69-.47-.41-.79-.68-.48-.43-.78-.7-.46-.42-.8-.74-.43-.4-.88-.84-.33-.32-1.17-1.08c2.44 3.55 4.75 6.75 6.95 9.39 1.7 2 3.27 3.91 4.75 5.62.74.85 1.46 1.67 2.16 2.45 9.09 10.15 15.16 14 28.4 15.7l19.71-19.71a36.75 36.75 0 00-4.48-8.35.1.1 0 010-.05c-.9.49-1.84 1.05-2.79 1.63-.59.32-1.11.61-1.64.96z" fill="#5a0a00"/><path d="M369.4 139.87a4 4 0 002.34-.1 6.2 6.2 0 001.11-.47 6 6 0 00-.58-1.05 4 4 0 00-1.78-1.53 4.62 4.62 0 00-3.53.56 4.59 4.59 0 002.44 2.59zm64.07-33.34a4 4 0 002.34-.1 6.2 6.2 0 001.11-.47 6 6 0 00-.58-1 4 4 0 00-1.78-1.53 4.62 4.62 0 00-3.53.56 4.59 4.59 0 002.44 2.54zM379 170.61a4.59 4.59 0 003.53.52 4 4 0 001.77-1.55 6.13 6.13 0 00.57-1.06 6.11 6.11 0 00-1.12-.46 3.93 3.93 0 00-2.34-.08 4.63 4.63 0 00-2.41 2.63z" fill="#fff2d9"/><path d="M349.93 139.74l.57 6.05 3.9 1.94-.57-6.05zm74.42 44.06l-3.16 5.19 1.97 3.89 3.16-5.2z" fill="#ff6937"/><path d="M237.83 58.63l3.35 5.92 2.54-6.55c-1.45-1.15-2.86-2.34-4.25-3.57z" fill="#ffcf70"/><path d="M243.72 58l1.28-3.32-3.34-5.92-2.17 5.64c1.37 1.23 2.78 2.42 4.23 3.6z" fill="#ff6937"/><path d="M444.75 257.09a6.24 6.24 0 00.79-1 4.31 4.31 0 00.74-2.42 5 5 0 00-2.07-3.24 4.93 4.93 0 00-1.53 3.53 4.2 4.2 0 001.11 2.27 6.55 6.55 0 00.96.86zm-15.96-18.38a6 6 0 001.24-.07 4.14 4.14 0 002.2-1 4.72 4.72 0 001-3.52 4.72 4.72 0 00-3.5 1.1 4 4 0 00-.94 2.22 6.39 6.39 0 00-.06 1.24zM160.47 47.68a4.06 4.06 0 00-2.32-.66 5.84 5.84 0 00-1.24.11 6 6 0 00.23 1.22 4.06 4.06 0 001.25 2.06A4.73 4.73 0 00162 51a4.66 4.66 0 00-1.53-3.32zm6 22.73a6.39 6.39 0 00.64-1.06 4.08 4.08 0 00.44-2.37 4.68 4.68 0 00-2.31-2.85 4.74 4.74 0 00-1.07 3.51 4.08 4.08 0 001.29 2 6.72 6.72 0 001.01.77z" fill="#fff2d9"/><path d="M188.56 26.12l-10.06 3.24-2.5 6.33 10.06-3.25zm31.91 82.91l-3.4 5.66 1.59 4.5.68 1.9 5.46-9.06-.26-.72-2.01-5.68zm14.5 8.3l-.05-.19-4.36-17.71-.45-1.84-6.16-2.87.28 1.16 4.36 17.7.91 3.67 4.37 2.04 1.79.84z" fill="#ffcf70"/><path d="M313.75 179l-14.68 4.64-3.47 1.1 7.17 5.24 4.86-1.54 13.3-4.2z" fill="#05a357"/><path d="M284.47 373c-3.21 9.66-16.3 16.25-17.31 7.21v-.22l-1.88-16.45s-.51-4.36-.76-6.61a22.4 22.4 0 01.25-6.59c.69-3.63 1.85-9.74 3-15.54l-4.81 5.88s-2.07 6.86-6.19 19.23-24.81 17.39-23.07 6.33l3.1-17.12c-1.41 2.7-2.68 5.13-3.62 6.95a25.54 25.54 0 00-2.42 7c-.6 3.31-1 5.52-1.48 8.16L226 389.28c-1.73 11.06 19 6 23.07-6.33s6.18-19.23 6.18-19.23l4.82-5.87c-1.13 5.79-2.28 11.9-3 15.53a22.76 22.76 0 00-.25 6.59c.25 2.25.76 6.61.76 6.61l1.87 16.42a1.8 1.8 0 000 .22c1 9.05 14.11 2.46 17.31-7.22.52 3.42 1.05 6.81 1.7 10.15a78.47 78.47 0 002 8.82h18.93a77.25 77.25 0 01-13.29-31.92c-.58-3.3-1.1-6.7-1.63-10.05zm-43.66-40.07c2-3.8 5.34-10.26 8.51-16.31l-.79-.71-5.27 2.09-12.54 8.47a22.75 22.75 0 01-10.2 3.89c-11.48 1.29-19.91-6.5-16.57-11.22.06-.1 1.39-1.31 1.39-1.31l15.66-13.3.07-.06-.85.38-.77.34q-5 2.24-10.05 4.4l-.77.34q-30.19 13-61.47 23.54a3.7 3.7 0 01-4.52-1.94l-.38.06a3.44 3.44 0 01-3.65-2l-4.8-10.94c-1.06.57-2.13 1.14-3.19 1.73a3.42 3.42 0 00-1.61 4l-.3.25a3.18 3.18 0 00-.91 3.76l10.83 24.71A3.18 3.18 0 00142 355l.35-.05a3.47 3.47 0 001.73 1.69 3.3 3.3 0 001.2.29h.12a2.29 2.29 0 00.52 0 2.8 2.8 0 00.5-.12.5.5 0 01.13 0l1.08-.37 6.77-2.44c1.69-.59 3.38-1.2 5.08-1.81l2.71-1q3.19-1.17 6.39-2.37l1.34-.48c2.46-.92 4.92-1.86 7.37-2.8a2 2 0 01.31-.12q14.28-5.52 28.33-11.62l-8.28 7s-1.33 1.21-1.39 1.31c-3.35 4.72 5.1 12.51 16.58 11.22a22.74 22.74 0 0010.16-3.76l12.54-8.48 2.82-1.12a25.42 25.42 0 012.45-7.04z" fill="#c14f29"/><path d="M221.06 304.47l-.07.06a6.13 6.13 0 01.4 2 7.49 7.49 0 01-3.45 7.14c-4.19 2.65-10.66 6.17-12.6 4.18 0 0-1.33 1.21-1.39 1.31-3.34 4.72 5.09 12.51 16.57 11.22a22.75 22.75 0 0010.2-3.89l12.54-8.49 5.27-2.09c-5.55-5-11.67-10.51-17.63-15.92q-4.9 2.27-9.84 4.48z" fill="#662a16"/><path d="M217.94 313.65a7.49 7.49 0 003.45-7.14 6.13 6.13 0 00-.4-2l-15.65 13.3c1.94 2.01 8.41-1.51 12.6-4.16z" fill="#993f21"/><path d="M238.19 349.16a8 8 0 011.62 6.42c-.7 4.07-2.43 10.8-6.15 10.61-1.74 11.06 19 5.95 23.07-6.33s6.19-19.23 6.19-19.23l4.81-5.88.27-1.4c-2.47-2.2-9.76-8.71-18.68-16.73-3.17 6.05-6.54 12.51-8.51 16.31a25.42 25.42 0 00-2.42 7c-.61 3.31-1 5.52-1.48 8.16a3.06 3.06 0 011.28 1.07z" fill="#662a16"/><path d="M268 333.35l-.27 1.4c-1.12 5.8-2.28 11.91-3 15.54a22.4 22.4 0 00-.25 6.59c.25 2.25.76 6.61.76 6.61a2.69 2.69 0 011 .22 5.94 5.94 0 013.63 5.07c.33 3.86.41 10.34-2.75 11.15v.22c1 9 14.1 2.45 17.31-7.21-.85-5.46-1.68-10.92-3-16.16-2.16-8.5-5.62-16.39-12.55-22.63s-.3-.28-.88-.8zm-8.91-47.13l31.54 19.61.39.24 6.54 4c4.68 2.9 8.48 4.76 14.32 4.18 7.52-1.1 13.43-6.46 9.1-9.31-5.07-3.31-32.34-21.27-43.36-28.54q-9.21 5.05-18.53 9.82z" fill="#662a16"/><path d="M323.09 251.95l-8.82-1.08-6.73 5.48 6.95 2.6z" fill="#05a357"/><path d="M389 414.39c.07-.33.14-.65.22-1l.21-1c.27-1.23.52-2.44.75-3.62l.18-1c.17-.92.31-1.82.44-2.7.12-.73.21-1.43.3-2.11.12-1 .23-2 .3-2.9.06-.61.1-1.21.13-1.79v-.44a34.81 34.81 0 000-3.84c0-.25 0-.48-.05-.7s0-.34 0-.5v-.05c0-.25-.07-.5-.1-.74a9.63 9.63 0 00-1.86-5 62.38 62.38 0 01-13.09-32l-6.45-58.43a29.06 29.06 0 00-18.67-24L314.49 259l-6.95-2.6-18.75-7a34.86 34.86 0 00-15.2-2.08l8.51 19.42a3.46 3.46 0 01-1 4.06l-.3.25a3.69 3.69 0 01-1.64 4.63l-1.56.84c11 7.27 38.29 25.23 43.36 28.54 4.33 2.85-1.58 8.21-9.1 9.31a29.67 29.67 0 004.87-.93l-29.13 15.41-7.77-8.92-10.92 14.23c6.93 6.24 10.39 14.13 12.55 22.63 1.34 5.24 2.17 10.7 3 16.16.52 3.4 1 6.8 1.7 10.13a77.25 77.25 0 0013.3 31.92h89.38c.05-.2.1-.4.14-.6z" fill="#993f21"/><path d="M290.44 306.1h.58l-.39-.24z" fill="#993f21"/><path d="M142.23 331.6l.38-.06v-.08L128.35 299c0-.12-.08-.25-.12-.38l-.33.27a3.44 3.44 0 00-1 4.05l6.86 15.66 4.8 10.94a3.44 3.44 0 003.67 2.06zm138.56-60.73v.1l.3-.25a3.46 3.46 0 001-4.06l-8.51-19.42-3.14-7.17a3.46 3.46 0 00-3.65-2l-.42.06a4 4 0 01.2.35q7.11 16.19 14.22 32.39z" fill="#ffcf70"/><path d="M219.43 305.2q-5 2.24-10.05 4.4 5.04-2.16 10.05-4.4zm11.43-5.2a30.55 30.55 0 01-4.34-4.8l-6.31 9.7.85-.38q4.94-2.22 9.84-4.48z" fill="#ffc043"/><path d="M142.57 331.46v.08a3.7 3.7 0 004.52 1.94q31.27-10.58 61.47-23.54l-80.35-13.6a3.66 3.66 0 011.71-2q31.26-17.08 63.72-31.36l2.11-.93q32.49-14.17 66.22-25.59a3.69 3.69 0 012.66.12l-25.52 39.19a21.71 21.71 0 018 3.06l11.92 7.42q9.32-4.77 18.53-9.78l1.56-.84a3.69 3.69 0 001.64-4.63v-.1q-7.11-16.2-14.21-32.42a4 4 0 00-.2-.35 3.68 3.68 0 00-4.37-1.67A825.92 825.92 0 00130 294.3a3.7 3.7 0 00-1.73 4.35c0 .13.07.26.12.38z" fill="#ffc043"/><path d="M239.15 275.74l25.52-39.19a3.69 3.69 0 00-2.66-.12q-33.73 11.4-66.22 25.59l-2.11.93q-32.46 14.28-63.68 31.36a3.66 3.66 0 00-1.71 2l80.35 13.6.77-.34q5-2.16 10.05-4.4l.77-.34 6.31-9.7c-8.44-11.75.93-21.26 12.61-19.39z" fill="#ffcf70"/><path d="M268.73 307.21l21.71-1.11.2-.26-31.54-19.61-11.92-7.42a21.71 21.71 0 00-8-3.06c-11.68-1.87-21.05 7.64-12.63 19.41a30.55 30.55 0 004.34 4.8c6 5.41 12.08 10.93 17.63 15.92l.79.71c8.92 8 16.21 14.53 18.68 16.73.58.52.9.8.9.81l10.92-14.23zm-29.24-7.56a3.59 3.59 0 01-3.68-.53l-7.27-6a9.58 9.58 0 0111-13.4l7.28 6a3.61 3.61 0 011.24 3.51 14.47 14.47 0 01-8.57 10.42z" fill="#993f21"/><path d="M248 289.23a3.61 3.61 0 00-1.24-3.51l-7.28-6a9.58 9.58 0 00-11 13.4l7.27 6a3.59 3.59 0 003.68.53 14.47 14.47 0 008.57-10.42z" fill="#c14f29"/><path d="M297.56 310.11l-6.54-4h-.58l-21.71 1.11 11.1 12.72 7.77 8.92 29.15-15.49a29.67 29.67 0 01-4.87.93c-5.88.57-9.64-1.3-14.32-4.19zm-63.9 56.08c3.72.19 5.45-6.54 6.15-10.61a8 8 0 00-1.62-6.42 3.06 3.06 0 00-1.28-1l-.17.94-3.1 17.12zm36.22 2.59a5.94 5.94 0 00-3.63-5.07 2.69 2.69 0 00-1-.22l1.88 16.45c3.16-.82 3.08-7.3 2.75-11.16z" fill="#993f21"/><path d="M410.11 405.05a78.67 78.67 0 01-14.87-12l-5.79-6a9.63 9.63 0 011.86 5c11.22 11.13 22 18.15 31.89 22.41l1.61.51h3c-2.88-1.35-9.58-4.91-11.65-6.2z" fill="#fff"/><path d="M391.55 394.75v-.69a34.81 34.81 0 010 3.84 106.74 106.74 0 0023.4 17.1h5.12c-8.97-4.22-18.56-10.64-28.52-20.25zm-.16 5.42c-.07.94-.18 1.9-.3 2.9a110.47 110.47 0 0015.53 12h4.65a109.64 109.64 0 01-19.88-14.9zm-1.23 8.67c-.23 1.18-.48 2.39-.75 3.62 1 .89 2 1.72 3.06 2.54h3.82c-2.09-1.58-4.2-3.29-6.32-5.15.03-.34.13-.68.19-1.01zm-1.32 6.16h.87l-.73-.6c-.04.2-.09.4-.14.6zm1.94-9.86c-.13.88-.27 1.78-.44 2.7a112.7 112.7 0 008.91 7.16h4.12a115 115 0 01-12.59-9.86z" fill="#fff"/><path d="M391.32 392.08c0 .24.07.49.1.74v.55s0 .45.05.7 0 .45 0 .69c10 9.61 19.55 16 28.5 20.25h4.77l-1.61-.51c-9.81-4.27-20.59-11.29-31.81-22.42zm-2.12 21.33c-.08.33-.15.65-.22 1l.73.6h2.76c-1-.82-2-1.65-3.06-2.54zm1.88-10.41c-.09.68-.18 1.38-.3 2.11a115 115 0 0012.59 9.89h3.24a110.47 110.47 0 01-15.53-12zm-.92 5.84c-.06.33-.12.67-.19 1 2.12 1.86 4.23 3.57 6.32 5.15h3a112.7 112.7 0 01-8.91-7.16zm1.37-10.94v.44c0 .58-.07 1.18-.13 1.79A109.64 109.64 0 00411.26 415h3.67a106.74 106.74 0 01-23.4-17.1z" fill="#a0bff9"/><path d="M427.26 354.25a53.54 53.54 0 017.84-57.79 53.52 53.52 0 0053.72 90.69v-3.87a53.56 53.56 0 01-61.56-29.03z" fill="#c14f29"/><path d="M452.81 283a53.54 53.54 0 0036 100.31v-5.74a48 48 0 110-92.3v-5.76a53.35 53.35 0 00-36 3.49z" fill="#fff"/><path d="M474.68 238.46l14.14 8.48v-9.56l-14.78-8.86z" fill="#156a41"/><path d="M455.18 288a48 48 0 0033.64 89.56v-9.21a39.2 39.2 0 110-73.86v-9.23a47.83 47.83 0 00-33.64 2.74z" fill="#ffe1d6"/><path d="M458.91 296a39.2 39.2 0 0029.91 72.36v-2.42a36.95 36.95 0 01-35.28-64.11 17.17 17.17 0 0116.07-2.42l3.13 1.13 7.31-3.45 1 2v-.1a2.63 2.63 0 111.59 3.36h-.09l1 2 5.33 1.91v-11.8a39.11 39.11 0 00-29.97 1.54z" fill="#ab1300"/><path d="M476.19 307.81l-3.45-7.3-3.13-1.13a17.17 17.17 0 00-16.07 2.42 36.95 36.95 0 0035.28 64.11v-44.76l-.07.21L485 320l3.87-10.82v-2.91l-5.33-1.91zm-25.42 40.52a2.63 2.63 0 11-1.59-3.36 2.63 2.63 0 011.59 3.36zm20.14 7.18a5.24 5.24 0 01-10-3.05l-3.55-7.46 3.66-1.72 2.7 5.73a5.25 5.25 0 017.19 6.52zm-.26-8.75l-5.32-1.91 1.9-5.32 5.33 1.91zm5.1-16.19a2.61 2.61 0 01-1.34-1.12 5.24 5.24 0 01-9.08-.7l-10.63 5-2-4.26a2.6 2.6 0 01-2.32.28 2.62 2.62 0 111.77-4.94 2.59 2.59 0 011.57 1.58l2.18-1-4.95-1.77 5.74-16 4.41 1.58 1-2.64 5.32 1.9-1.91 5.33-3.08-1.11-4.17 11.64 8.86-4.19.78 1.64a5.22 5.22 0 017.43 4.1 2.62 2.62 0 013.84 3.12 2.64 2.64 0 01-3.42 1.56zm5.94 24l-5.32-1.91 1.91-5.32 5.32 1.91z" fill="#e11900"/><path d="M453.71 326.43a2.59 2.59 0 00-1.57-1.58 2.62 2.62 0 10-1.77 4.94 2.6 2.6 0 002.32-.28l-1-2.12z" fill="#ab1300"/><path d="M465.14 324.74a5.2 5.2 0 012.7-3l-.78-1.64-8.86 4.19-.61 1.7-1.7-.61-2.18 1-2 1 1 2.12 2 4.26 10.63-5a5.24 5.24 0 01-.2-4.02z" fill="#231f20"/><path d="M458.2 324.31l4.17-11.64-2.24-.8.96-2.68-4.41-1.58-5.74 16.02 4.95 1.77 1.7.61zm15.97 2.9a2.64 2.64 0 011.1-1.35 5.24 5.24 0 10-.86 3.59 2.58 2.58 0 01-.24-2.24zm-6.43 21.58a5.22 5.22 0 00-4 .2l2.52 5.32-3.68 1.69-1.68-3.58a5.24 5.24 0 106.84-3.67z" fill="#ab1300"/><path d="M449.18 345a2.62 2.62 0 101.59 3.36 2.63 2.63 0 00-1.59-3.36zm29.93-16a2.62 2.62 0 00-4.94-1.77 2.58 2.58 0 00.24 2.24 2.61 2.61 0 001.34 1.12 2.64 2.64 0 003.36-1.59z" fill="#231f20"/><path d="M482.62 302.36A2.62 2.62 0 10481 299v.1l1.52 3.22z" fill="#e11900"/><path d="M476.19 307.81l7.3-3.45h.01l-.97-2.04-1.52-3.22-.96-2.04-7.31 3.44v.01zm.188 44.865l1.906-5.319 5.319 1.907-1.907 5.318z" fill="#231f20"/><path d="M465.338 344.868l1.906-5.319 5.319 1.907-1.907 5.319z" fill="#ab1300"/><path d="M462.37 312.67l3.08 1.1 1.91-5.32-5.32-1.9-.95 2.64-.96 2.68zm3.87 41.64l-2.52-5.32-2.7-5.73-3.65 1.73 3.53 7.47 1.68 3.58zm22.51-32.95l.07-.21v-11.96L484.95 320z" fill="#231f20"/><path d="M49.72 26l3.71-1.27 2.63-4.3A69.91 69.91 0 0064.43 0h-.73a70.25 70.25 0 01-6.41 13.6zm28.04 36.21c-21.19 17-51.2 14.76-67-5a44 44 0 01-9.26-32.4c-3.46 13.53-1 28 8 39.25 15.82 19.74 45.82 22 67 5a50.72 50.72 0 0019-34.12 51.14 51.14 0 01-17.74 27.27z" fill="#c14f29"/><path d="M10.74 57.23c15.82 19.74 45.83 22 67 5A51.14 51.14 0 0095.5 34.92a46.89 46.89 0 001.26-16.52c-20.58.72-40.58 12.05-59.15 21.17a2.86 2.86 0 01-4.1-2.6 2.81 2.81 0 01.67-1.8C43.39 24.26 53.52 12.71 60.39 0H11.45A49.93 49.93 0 001.5 24.81a44 44 0 009.24 32.42z" fill="#ffe3ac"/><path d="M33.49 37a2.86 2.86 0 004.1 2.6c18.57-9.12 38.57-20.45 59.15-21.17a69.73 69.73 0 00-33.27 2.92l-10 3.42L49.72 26l7.57-12.4A70.25 70.25 0 0063.7 0h-3.31c-6.87 12.71-17 24.26-26.23 35.16a2.81 2.81 0 00-.67 1.84z" fill="#ffc043"/><path d="M94.63 397.27h-.21a64.14 64.14 0 01-7.18-.49 62.57 62.57 0 01-7.24-1.35l-3.36-6.18-7.64 3.23-3-.82-15-10.5-22.21-15.5a39.24 39.24 0 012.74-3.66 39.18 39.18 0 00-6 6.78l22.2 15.51 15 10.49 3 .82 7.68-3.23 3.35 6.18a63.47 63.47 0 0029.07.31v-2.55l-.44.08a63.27 63.27 0 01-10.76.88z" fill="#c14f29"/><path d="M89.18 357.12C70.3 343.94 45.47 346.37 31.53 362a39.24 39.24 0 00-2.86 3.62l22.21 15.5a2.62 2.62 0 013-.72l5 2.22 1.76-3.31 8 3.93 7.36-3.61 7.2 12.56c8.54 2.61 17.22 4.18 25.85 3.55.55-14.44-6.5-29.28-19.87-38.62zM80 395.43a62.57 62.57 0 007.26 1.34 62.57 62.57 0 01-7.26-1.34zm14.63 1.84a63.27 63.27 0 0010.83-.84 63.27 63.27 0 01-10.83.84z" fill="#ffe3ac"/><path d="M123.81 403.63v-.09c.17-.41.34-.82.52-1.22l.09-.19c.38-.84.78-1.66 1.18-2.48.14-.27.26-.55.4-.82.48-.93 1-1.85 1.49-2.76l.18-.33 2.54-4.44 9.73-17c-.57-.36-1.15-.72-1.73-1l-13.44 23.52-2.54 4.44c-.46.81-.9 1.62-1.33 2.44h2.87z" fill="#c14f29"/><path d="M143.69 367.77l-3.71 6.5-9.73 17a2.74 2.74 0 011 1.22 2.62 2.62 0 010 1.75q-1.09 3.21-2.21 6.49c-.37 1.09-.73 2.19-1.1 3.29a.56.56 0 000 .12c-.36 1.06-.7 2.13-1 3.2a1.07 1.07 0 00-.07.19v.09c-.32 1-.62 2-.93 2.94l-.18.62c-.2.65-.4 1.31-.59 2l-.18.62c-.09.3-.18.6-.26.9 0 .09 0 .19-.08.28h38c4.49-18.47-2.65-37.9-18.96-47.21zm-19.88 35.86v-.09zm2.19-4.8c.48-.93 1-1.85 1.49-2.76-.49.93-.97 1.83-1.49 2.76zm-1.54 3.3c.38-.84.78-1.66 1.18-2.48-.4.82-.8 1.64-1.18 2.48z" fill="#ffe3ac"/><path d="M127.53 396.07c-.51.91-1 1.83-1.49 2.76-.14.27-.26.55-.4.82-.4.82-.8 1.64-1.18 2.48l-.09.19c-.18.4-.35.81-.52 1.22v.09h4.27c-.05.13-.09.27-.14.4.37-1.1.73-2.2 1.1-3.29q1.11-3.28 2.21-6.49a2.62 2.62 0 000-1.75 2.74 2.74 0 00-1-1.22l-2.54 4.44zm-2.9 18.66c0 .09 0 .18-.08.27 0-.09 0-.19.08-.28zm.26-.91l.18-.62z" fill="#ffc043"/><path d="M126.77 407.67v-.09.08zm-4.54-.07c.48-1.34 1-2.66 1.58-4H117a39.54 39.54 0 00-24.29 8.27A14.57 14.57 0 0090 415h30c.09-.39.18-.78.28-1.17.57-2.1 1.21-4.18 1.95-6.23zm2.66 6.22c-.09.3-.18.6-.26.9.08-.3.17-.6.26-.9z" fill="#ffe1d6"/><path d="M124.63 414.72c.08-.3.17-.6.26-.9l.18-.62c.19-.66.39-1.32.59-2l.18-.62c.31-1 .61-2 .93-2.94v-.08a1.07 1.07 0 01.07-.19c.34-1.07.68-2.14 1-3.2a.56.56 0 010-.12c0-.13.09-.27.14-.4h-4.27c-.56 1.31-1.1 2.63-1.58 4-.74 2-1.38 4.13-1.94 6.23-.1.39-.19.78-.28 1.17h4.54c0-.09 0-.18.08-.27z" fill="#fabda5"/><path d="M92.75 411.88L89.08 415H90a14.57 14.57 0 012.75-3.12z" fill="#fff"/><path d="M52.72 399.58L46 404.75l6.27.73a4.63 4.63 0 004.16-1.74l5.67-7.26-6.66 1.75a7.68 7.68 0 00-2.72 1.35zm19.68 9.63l-2.69-4.57-1.59.48a4.84 4.84 0 00-3.29 3.52l-.89 3.77 5.2 2.59h.25l2.3-1.86a3.05 3.05 0 00.71-3.93zm10.8-17.02L76 379.63l-7.27 3.65-8-3.93-1.76 3.31-5-2.22a2.62 2.62 0 00-3 .72l15 10.5 3 .82 7.67-3.23 3.36 6.18a62.57 62.57 0 007.26 1.34 64.14 64.14 0 007.18.49h.21a63.27 63.27 0 0010.83-.84l.44-.08c1-.18 2.1-.38 3.15-.61-8.65.64-17.33-.93-25.87-3.54z" fill="#ffc043"/></svg>