<svg viewBox="0 0 494.48 415" xmlns="http://www.w3.org/2000/svg"><path d="M254.33 111a4.5 4.5 0 01-1.51-2.21 7.1 7.1 0 01-.33-1.34 7.1 7.1 0 011.36-.18 4.55 4.55 0 012.62.58c1.61 1 1.9 3.45 1.9 3.61s-2.5.62-4.04-.46zm9.12-26.51a4.74 4.74 0 01-1.57-3.32 4.18 4.18 0 011-2.2 6 6 0 01.88-.88 6.39 6.39 0 01.79 1 4.1 4.1 0 01.77 2.29 4.7 4.7 0 01-1.87 3.07zM368 47.94a4.58 4.58 0 012.21-1.51c1.85-.48 3.82 1 3.94 1.06-.07.15-1.21 2.31-3.08 2.67a4.53 4.53 0 01-2.65-.4 6.71 6.71 0 01-1.2-.67 7 7 0 01.78-1.15zM294.8 198l-9.93.83 4.15-7.24-11.47 3.11 6.22-5.68 8-2.15 4.26-7.43 9.92-.84zm56.88 26.8a4.26 4.26 0 01-2.37.88 6.6 6.6 0 01-1.3 0 6.59 6.59 0 01.14-1.3 4.33 4.33 0 011.13-2.26 5 5 0 013.73-.92 4.9 4.9 0 01-1.33 3.63zm13.67 5.83a6.7 6.7 0 01-1.29.12 4.32 4.32 0 01-2.44-.68c-1.47-1-1.62-3.33-1.62-3.48a4.88 4.88 0 013.79.6 4.2 4.2 0 011.32 2.15 6 6 0 01.25 1.28zm16.31-104.38a21.82 21.82 0 01-13.73 5.19 70 70 0 01-23.93-3.72l-4.82-1.65 3 5a69.83 69.83 0 0110.05 31.84 22 22 0 01-12.33 6.28 50.64 50.64 0 01-38.9-10.95c-21.18-17-25.51-46.79-9.66-66.52a42.15 42.15 0 015.41-5.59c16.08-18.59 45.27-20.36 66-3.7 13.94 11.24 20.58 28.05 18.91 43.85zm32.28 194.35a4.16 4.16 0 01-2.21-1.21 6.24 6.24 0 01-.85-1 7.25 7.25 0 011.06-.74 4.33 4.33 0 012.45-.63c1.79.17 3.07 2.08 3.15 2.21a4.87 4.87 0 01-3.6 1.37zm5.29 41.8a4.5 4.5 0 01-1.84 1.94 7.09 7.09 0 01-1.24.6 7.13 7.13 0 01-.47-1.29 4.54 4.54 0 010-2.68c.66-1.79 3-2.58 3.13-2.62.09.13 1.19 2.3.42 4.05zM22.21 55.7a4.08 4.08 0 01-2.17 1 5.83 5.83 0 01-1.23.12 6.14 6.14 0 010-1.24 4 4 0 01.86-2.25 4.72 4.72 0 013.47-1.22 4.78 4.78 0 01-.93 3.59zm10.04 151.75a6.4 6.4 0 01-.3 1.26 6.57 6.57 0 01-1.22-.43 4.34 4.34 0 01-1.94-1.63 4.89 4.89 0 010-3.84 4.88 4.88 0 013.2 2.12 4.3 4.3 0 01.26 2.52zm30.26 26.21a4.07 4.07 0 011.86-1.52 4.68 4.68 0 013.61.65 4.69 4.69 0 01-2.55 2.63 4 4 0 01-2.41-.16 6.37 6.37 0 01-1.13-.51 6.06 6.06 0 01.62-1.09zm-32.23 101a4.69 4.69 0 013.08 2 4 4 0 01.33 2.39 6.51 6.51 0 01-.27 1.21 6.49 6.49 0 01-1.17-.4 4.05 4.05 0 01-1.87-1.53 4.68 4.68 0 01-.1-3.69zm4.58 28.85L26 367.8l5.5 9.59-9.93-.83-11.11-19.4 9.93.83 3.49 6.11.46-1.78 12.34-6z" fill="none"/><path d="M305.34 153.85c-21.18-17-25.5-46.79-9.66-66.52.33-.41.68-.8 1-1.2a42.15 42.15 0 00-5.41 5.59c-15.85 19.73-11.52 49.5 9.66 66.52a50.64 50.64 0 0038.95 10.94 22 22 0 0012.33-6.28c-15.05 5.04-32.89 2.18-46.87-9.05zm43.02-30.52l-13.75-4.71 4.54 7.45 4.82 1.65a70 70 0 0023.95 3.75 21.82 21.82 0 0013.73-5.19 69.86 69.86 0 01-33.29-2.95z" fill="#c14f29"/><path d="M362.71 82.43c-20.74-16.66-49.93-14.89-66 3.7-.34.4-.69.79-1 1.2-15.84 19.73-11.52 49.5 9.66 66.52 14 11.23 31.82 14.09 46.89 9.05-5.16-19.93-20.56-37-33.48-53.15a2.84 2.84 0 010-3.56 2.88 2.88 0 011.65-1 2.85 2.85 0 011.91.27c18.42 9.7 38.64 21 59.35 20.86 1.64-15.84-5-32.65-18.98-43.89z" fill="#ffe3ac"/><path d="M320.4 105.15a2.88 2.88 0 00-1.65 1 2.84 2.84 0 000 3.56c12.92 16.16 28.32 33.22 33.48 53.15A69.83 69.83 0 00342.18 131l-3-5-4.54-7.45 13.75 4.71a69.86 69.86 0 0033.3 3c-20.71.11-40.93-11.16-59.35-20.86a2.85 2.85 0 00-1.94-.25z" fill="#ffc043"/><path d="M463.15 391.3a69.88 69.88 0 01-8 18.92l-2.94 4.78h2.88a69.91 69.91 0 007.67-20.52 22.82 22.82 0 00.39-3.18z" fill="#c14f29"/><path d="M465.23 378.36c-15.06-5.07-32.91-2.23-46.91 9A51.25 51.25 0 00400.47 415h45.44c8.76-11.23 16.43-23.29 19.32-36.64z" fill="#ffe3ac"/><path d="M473.26 415h21.22a69.58 69.58 0 00-21.22 0zm-10.11-23.7a70.08 70.08 0 002.08-12.94c-2.89 13.35-10.56 25.41-19.32 36.64h6.3l2.92-4.78a69.88 69.88 0 008.02-18.92z" fill="#ffc043"/><path d="M318.22 42.11A62.9 62.9 0 00377.49 0H372a57.72 57.72 0 01-53.79 37 57.74 57.74 0 01-54-37h-5.49a62.89 62.89 0 0059.5 42.11z" fill="#fff"/><path d="M318.21 37A57.72 57.72 0 00372 0h-9.37a49.12 49.12 0 01-47.13 28.27A49.07 49.07 0 01273.62 0h-9.37a57.74 57.74 0 0053.96 37z" fill="#e6f2ed"/><path d="M315.5 28.27A49.12 49.12 0 00362.63 0h-3.78a45.55 45.55 0 01-28 23.15A45.71 45.71 0 01277.37 0h-3.75a49.07 49.07 0 0041.88 28.27z" fill="#ffc043"/><path d="M330.85 23.15a45.55 45.55 0 0028-23.15h-81.48a45.71 45.71 0 0053.48 23.15z" fill="#ffcf70"/><path d="M109.78 247.45l3.68 1.93q3.28-3 6.73-5.73l-11.65-6.07z" fill="#156a41"/><path d="M138.81 196.23l3.97 6.26 3.19-10.19-4.33-5.07z" fill="#05a357"/><path d="M176.14 149.16v.06c0 .16.74 7.24 1.38 13.61a5.92 5.92 0 002.07-1.57l46.19 46.79c2.16.06 4.3.16 6.44.31 1.07.07 2.13.15 3.19.24l.55.05 2.8.28h.17l-47.55-50c5.42.12 9.4-1.83 8.85-4.62a4.2 4.2 0 00-.27-.55c-.4-.77-1.2-2.3-2.25-4.24s-2.31-4.32-3.65-6.78v-.07l-.84-1.55-7.39-8.92a18.18 18.18 0 01-11 4.27c.37 4.17 1.31 12.69 1.31 12.69zM71.65 172.83c-3.88 7.29 1.48 18 8.18 13.33L80 186s15.18-10.43 17.22-11.85a18.87 18.87 0 004.17-3.93c1.9-2.45 5.07-6.58 8.07-10.53l-.3 6s-3 5.06-8.12 14.38 7 23.32 13 16 12.09-15.4 13.83-17.64a17.46 17.46 0 002.51-4.43l11.27 13.18 4.35 5.12 21.34 25c1.52-.54 3-1.06 4.58-1.55 1.44-.47 2.89-.91 4.35-1.34L153 186.16c6.72 3.09 13.75 2.34 14.25-1.16a14.85 14.85 0 00-.23-1.53h.06l-.14-.77-23.53-34.45-.9 3v.1c-.19.65-.37 1.27-.54 1.83-.16.53-.34 1-.53 1.56-.06.17-.13.34-.2.51-.14.35-.29.7-.44 1l-.25.55c-.23.46-.46.92-.71 1.37s-.66 1.13-1 1.68c-1.86 2.79-5.49 8.1-5.49 8.1s-10.32 15.83-12.61 19.2c-1.23 1.81-2.09.16-1.9-2.92-5.69-1.56-11.16-14-6.92-22.86 5.63-11.71 8.91-18.05 8.91-18.05l.63-7.55c-3.22 4.93-6.63 10.1-8.65 13.18a22.51 22.51 0 01-4.39 4.9c-1.74 1.43-6.38 5.38-6.38 5.38s-11.77 9.74-14.35 11.79c-1 .8-1.41.22-1.22-1.05-4.62-.9-7-11-3.56-18.31-2.49 1.89-5 3.78-7.51 5.56l-.34.24a83.35 83.35 0 01-70.54 12.29L0 168.49V189c2.54.31 5.09.54 7.64.67a109.19 109.19 0 0064.01-16.84zm75.24 16.56l-.89 2.91-4.33-5.07 1.29-4.1z" fill="#c14f29"/><path d="M145.97 192.3l.92-2.91-3.96-6.26-1.29 4.1z" fill="#156a41"/><path d="M113.47 249.37A161.86 161.86 0 0045.18 415h21.6a161.29 161.29 0 0146.69-165.63z" fill="#c14f29"/><path d="M240.09 209.08c.72.08 1.44.16 2.15.26-.71-.1-1.43-.18-2.15-.26zM371.06 410.6l-2.13-.59c-.19.65-.38 1.31-.56 2-.28 1-.57 2-.89 3h2.33c.24-.81.47-1.63.69-2.43s.37-1.33.56-1.98zM200.39 215.15l.5.78-.1-.83zm54.9 4.61l2.41.56 1.33.31-2.33-2.81-2.46-.57.33-1.49h.22l.31.07-4.3-5.18c-1.64-.31-3.28-.59-4.94-.85zm7.54 7.93l2.74.83-4.84-5.84c-1.17-.31-2.34-.61-3.53-.9z" fill="#fff"/><path d="M221.29 221.75a148.33 148.33 0 0126.5 2.38l-5.07-5.13-1.11-.14-1.42-.18c-2-.26-4.08-.52-6.14-.63h-.23l.13-1.53h.23c.41 0 .83.06 1.25.09.76.05 1.55.11 2.31.22l3.24.41-2.52-2.55-.49-.06c-.77-.11-1.56-.17-2.32-.22l-1.29-.1h-.23l.13-1.52h.22q1.14.06 2.28.18l-4.54-4.6c-2.14-.15-4.28-.25-6.44-.31-1.49 0-3-.07-4.49-.07a162.82 162.82 0 00-24.29 1.82l2.52 3.92 5.78-.74 4.15-.31.11 1.53-3.84.29c-.77.08-1.54.18-2.32.28l-1.06.13.27 2.2 1-.13c.77-.1 1.54-.2 2.31-.28l3.79-.29.12 1.53-4 .3-3.15.4 2.56 4a147.48 147.48 0 0116.05-.89zm-.22-9.56h.45l2.66.06c1.84.05 3.67.09 5.51.16h.23l-.08 1.53h-.22c-1.58-.06-3.15-.1-4.72-.13l-2.32-.06V216l2.3.06c1.54 0 3.08.07 4.62.13h.23l-.08 1.53-8.34-.23-7.32.19-.07-1.54 7.16-.18v-2.21l-7.26.18-.07-1.53zm42.93 1.52l4.5 5.74 1.48.47.21.07-.37 1.15 3.14 4 .09-.25.22.07c1.44.52 2.89 1.1 4.29 1.66l2.16.85.85-2-2.17-.86c-1.43-.57-2.91-1.16-4.38-1.69l-.21-.08.51-1.44.22.08c1.5.54 3 1.14 4.46 1.72l2.16.85.18.07.22.08c1.63.67 3.24 1.4 4.81 2.12l2.66 1.21.22.09-.67 1.38-6.58-3-.86 2 6.52 2.95-.66 1.38-.2-.09c-.89-.39-1.78-.8-2.66-1.2-1.56-.71-3.16-1.44-4.76-2.1l-2.37-.93c-.83-.33-1.68-.67-2.53-1l5.26 6.72a146.87 146.87 0 0131.41 18.5l.34-.23a2.12 2.12 0 013.26 2.18l-.16.77a147.52 147.52 0 0146.83 160h4.47c1.38-4.35 2.6-8.88 3.61-13.5l.05-.22 1.5.33-.9 3.87c-.23 1-.47 2.07-.77 3.09l2.14.57c.3-1 .55-2.1.78-3.14l.91-3.92 1.49.33-.05.22c-.91 4.21-2 8.35-3.23 12.37h4.42A161.28 161.28 0 00264 213.71zm112.43 131.58l1 7.8.32 4.14-1.53.12-.29-3.84c-.08-.78-.18-1.55-.28-2.32-.05-.35-.09-.71-.14-1.06l-2.19.27c0 .35.09.7.13 1.05.1.76.2 1.52.28 2.28l.29 3.79-1.53.11-.3-4-1-7.54-.71-4 1.51-.27.67 3.75q.17 1.16.3 2.31c0 .34.09.67.13 1l2.19-.29c0-.35-.09-.7-.13-1.05-.1-.78-.19-1.55-.31-2.32l-.67-3.8 1.5-.27zM306.27 239l-.19-.12-1.73-1.11c-1.37-.89-2.79-1.8-4.24-2.61L299 237.1c1.43.79 2.81 1.69 4.16 2.56.57.37 1.14.74 1.72 1.1l.19.12-.84 1.29-.19-.12-1.26-.82c-1.68-1.08-3.42-2.2-5.21-3.18l-3.3-1.9c-.7-.41-1.44-.78-2.15-1.14-.41-.2-.81-.41-1.21-.62l-.2-.1.71-1.36.2.1c.37.2.75.39 1.13.58.67.34 1.37.7 2 1.08l2.9 1.67 1.11-1.92-3-1.7c-.68-.38-1.39-.74-2.08-1.09l-1.14-.58-.2-.11.71-1.36.2.11 1.23.63c.75.37 1.52.76 2.25 1.2l3.41 2c1.87 1 3.69 2.2 5.45 3.33l1.24.8.2.13zm16.07 12.07c-.33-.27-.65-.56-1-.84-.57-.51-1.17-1-1.78-1.5l-2.68-2.11-1.36 1.75 2.63 2.06c.61.47 1.2 1 1.77 1.49.32.28.63.56 1 .83l.17.15-1 1.17-.17-.16c-1.58-1.42-3.29-2.76-4.93-4.05l-1-.75c-1.45-1.19-3-2.3-4.52-3.36l-1.6-1.14-.18-.13.88-1.26.18.14c.63.45 1.26.9 1.9 1.34 1.23.87 2.5 1.76 3.7 2.73l1.35-1.75c-1.22-1-2.52-1.9-3.78-2.78-.64-.45-1.28-.9-1.91-1.36l-.18-.13.88-1.26.18.13 1.62 1.15c1.58 1.12 3.2 2.27 4.72 3.51l.9.71c1.74 1.36 3.53 2.76 5.2 4.26l.16.15-1 1.16zm9.77 12.31c1 1.09 2.12 2.21 3.14 3.36l.15.17-1.14 1-.15-.17c-1.15-1.29-2.37-2.56-3.55-3.79q-1-1-2-2.1l-5.3-5.06 1-1.13 5.17 4.93 1.57-1.56-5.25-5 1-1.13 5.3 5.06.16.16.16.16c.63.66 1.25 1.32 1.88 2 1.24 1.29 2.52 2.63 3.74 4l.15.17-1.14 1-.15-.17c-1-1.17-2.14-2.32-3.21-3.42l-1.62-1.7-1.57 1.55c.55.58 1.12 1.14 1.66 1.7zm14.06 17l1.47 2.07.14.19-1.27.87-2.57-3.51c-.64-.9-1.3-1.84-2-2.72l-3.52-4.48-1.42-1.67 1.17-1 1.32 1.53 3.17 4 1.76-1.35-3.22-4.1-1.34-1.54 1.17-1 1.43 1.66 3.64 4.63c.76.93 1.46 1.92 2.14 2.88l2.61 3.68-1.26.87-.13-.18c-.5-.69-1-1.39-1.48-2.09-.85-1.2-1.72-2.44-2.63-3.62l-1.76 1.33c.9 1.23 1.75 2.44 2.58 3.61zm8.93 14.1c.38.66.78 1.34 1.14 2L358 300l-1.37.7-1.83-3.59c-.39-.71-.8-1.42-1.21-2.13l-.68-1.17-1.91-3.34-2.18-3.4 1.29-.82 2.06 3.2c.4.66.78 1.33 1.16 2 .17.3.34.6.52.9l1.91-1.11-.52-.92c-.39-.68-.78-1.36-1.18-2l-2.06-3.27 1.29-.83 2.25 3.51 2 3.4c.22.4.45.79.68 1.18.43.74.86 1.49 1.27 2.24l1.9 3.7-1.37.7-1.76-3.44c-.36-.68-.75-1.37-1.14-2-.18-.31-.36-.62-.53-.93l-1.92 1.1zm9.23 24.13l-.24-.69c-.13-.41-.27-.82-.42-1.22l-2.24-5.67c-.56-1.4-1.21-2.81-1.83-4.16-.35-.77-.7-1.54-1-2.32l-.09-.2 1.39-.65.09.21c.34.78.69 1.54 1 2.31.6 1.31 1.22 2.66 1.77 4l2-.85c-.56-1.38-1.18-2.75-1.79-4.08-.36-.78-.72-1.56-1.06-2.35l-.09-.2 1.38-.65.1.21c.34.78.7 1.56 1.05 2.33.62 1.35 1.26 2.75 1.83 4.15l.08.2.08.21 2.23 5.66c.16.42.3.85.45 1.28.07.24.15.47.23.71l.08.21-1.45.51-.65-1.93-1.92-4.86-2.05.83 1.89 4.79.64 1.9-1.44.51zm5.37 19.1c-.22-.88-.42-1.78-.62-2.67-.35-1.55-.72-3.16-1.14-4.72-.25-.87-.5-1.75-.74-2.62-.43-1.55-.88-3.14-1.38-4.69l-.07-.21 1.45-.47.07.21c.49 1.46.91 3 1.31 4.42.21.74.42 1.49.64 2.24l2.13-.57c-.22-.75-.42-1.5-.63-2.25-.42-1.48-.85-3-1.34-4.5l-.07-.22 1.46-.46.07.21c.53 1.62 1 3.29 1.45 4.91.25.88.49 1.76.75 2.64.45 1.66.83 3.36 1.2 5 .2.89.4 1.77.61 2.66l.06.22-1.5.32-.05-.22c-.2-.83-.39-1.66-.58-2.49-.32-1.43-.66-2.91-1-4.36l-2.14.55c.34 1.41.67 2.84 1 4.23.19.84.38 1.68.58 2.52l.05.22-1.49.32zm7.94 44.55c-.12 2.15-.4 4.32-.67 6.41l-.18 1.41c-.23 2.19-.63 4.4-1 6.53l-.27 1.46-1.5-.28v-.21c.11-.65.22-1.29.34-1.93.3-1.64.61-3.33.79-5l-2.19-.3c-.18 1.67-.49 3.33-.78 4.94-.11.63-.23 1.26-.34 1.9v.22l-1.5-.28.26-1.47c.37-2 .75-4.15 1-6.26l.18-1.38c.26-2 .53-4.11.64-6.17v-.23l1.54.13v.22c0 .43-.07.85-.1 1.27-.05.76-.1 1.54-.21 2.3l-.42 3.32 2.19.29.43-3.39c.11-.77.16-1.56.22-2.32l.09-1.29v-.22l1.52.13zm.59-13c0 .89-.05 1.78-.07 2.66 0 1.81-.08 3.68-.15 5.52v.23l-1.53-.09v-.22c.06-1.57.1-3.14.13-4.72l.06-2.31h-2.21c0 .79 0 1.58-.06 2.37 0 1.52-.08 3-.13 4.56v.23l-1.53-.08.23-8.34-.19-7.32 1.53-.07.18 7.15h2.22l-.19-7.25 1.54-.07.18 7.32v.45zM245.45 209.79l.41.05zm-73.56 5.92zm64.11-7.06l2.8.28zm-3.77-.29zm-50.56 18.78l-3-3.55c-1.14.32-2.28.65-3.39 1l-.22.07-.46-1.46.21-.07c.91-.3 1.84-.57 2.76-.84l-1.57-1.83c-.63.19-1.25.37-1.86.57l-.22.07-.46-1.46.21-.07 1.24-.38-3-3.48c-1.54.49-3.06 1-4.58 1.55a160.77 160.77 0 00-47.11 26.38q-3.45 2.78-6.73 5.73A161.29 161.29 0 0066.78 415h4.41c-.31-1-.61-2.09-.9-3.12-.25-.88-.49-1.76-.75-2.65-.44-1.65-.82-3.33-1.2-5-.2-.89-.4-1.79-.61-2.68l-.06-.23 1.5-.31v.21c.2.83.39 1.66.58 2.49.32 1.43.66 2.91 1 4.37l2.14-.56c-.35-1.41-.67-2.85-1-4.24-.19-.83-.38-1.67-.58-2.5v-.23l1.5-.31v.21c.21.89.41 1.78.61 2.67.36 1.56.72 3.17 1.14 4.73.25.87.5 1.75.74 2.62.42 1.48.85 3 1.33 4.5h4.57a147.52 147.52 0 01100.47-187.83zm-49.55 19.33c-.91.65-1.85 1.31-2.73 2l-4.48 3.53-1.61 1.39-1-1.17 1.52-1.32 4-3.18-1.3-1.72-4.09 3.22-1.55 1.34-1-1.17 1.67-1.43 4.62-3.64c.93-.76 1.91-1.45 2.86-2.13l3.7-2.63.87 1.27-.18.12c-.69.51-1.4 1-2.1 1.5-1.2.84-2.43 1.71-3.61 2.61l1.33 1.77c1.16-.89 2.37-1.74 3.54-2.57l2.08-1.47.19-.14.87 1.26zm22.41-19.39c.78-.34 1.56-.7 2.33-1.06 1.35-.62 2.75-1.25 4.16-1.82l.2-.08.2-.08 5.66-2.23c.42-.16.86-.3 1.29-.45l.7-.24.21-.07.51 1.45-1.93.65-4.86 1.9.84 2 4.79-1.88 1.9-.65.51 1.45-.22.07-.69.23-1.22.43-5.6 2.3h-.07c-1.41.56-2.81 1.21-4.17 1.83l-2.3 1-.2.09-.66-1.39.21-.09c.78-.34 1.55-.7 2.33-1.05 1.3-.6 2.65-1.21 4-1.76l-.85-2c-1.38.56-2.76 1.18-4.09 1.79-.78.36-1.55.72-2.34 1.06l-.2.09-.65-1.39zM143.3 233l1.19-.69c.73-.42 1.47-.85 2.23-1.27l3.7-1.89.69 1.37-3.43 1.75c-.69.36-1.37.76-2 1.14l-.93.54 1.09 1.92.9-.52c.66-.38 1.34-.77 2-1.13l3.38-1.73.7 1.36-3.58 1.84c-.71.38-1.4.79-2.1 1.19l-1.21.69-3.29 1.9-3.39 2.17-.83-1.29 3.2-2.05c.66-.4 1.32-.78 2-1.16l.91-.52-1.11-1.91-.89.51c-.69.39-1.38.78-2 1.19l-3.25 2.08-.83-1.29 3.51-2.24zm-33.14 25.35l.16-.15.16-.16 2-1.88c1.29-1.24 2.62-2.52 4-3.73l.16-.15 1 1.14-.17.15c-1.17 1-2.32 2.15-3.43 3.22l-1.69 1.6 1.56 1.58 1.68-1.61c1.09-1 2.21-2.12 3.36-3.15l.17-.15 1 1.15-.16.14c-1.29 1.16-2.57 2.38-3.8 3.57l-2.1 2-5.06 5.3-1.13-1 4.94-5.18-1.57-1.56-5 5.25-1.14-1zm-17.68 21.2l1.15-1.62c1.11-1.57 2.26-3.2 3.5-4.71l.74-.95c1.35-1.72 2.74-3.5 4.24-5.15l.14-.17 1.16 1-.14.17-.84 1c-.51.58-1 1.17-1.51 1.79l-2.11 2.68 1.75 1.36 2.07-2.63c.47-.61 1-1.2 1.48-1.77l.83-1 .15-.17 1.17 1-.15.17c-1.44 1.58-2.77 3.3-4.07 5l-.74.94c-1.19 1.46-2.3 3-3.37 4.53l-1.13 1.6-.13.18-1.26-.88.14-.19c.46-.62.9-1.25 1.34-1.89.87-1.23 1.77-2.51 2.74-3.7l-1.76-1.35c-1 1.21-1.9 2.51-2.78 3.77l-1.36 1.92-.13.17-1.26-.87zm-10.61 17.54c.22-.41.42-.82.63-1.23.38-.75.77-1.52 1.2-2.26l2-3.4c1-1.87 2.2-3.69 3.33-5.45l.81-1.25.12-.19 1.28.84-.12.19c-.36.58-.74 1.16-1.11 1.74-.89 1.37-1.8 2.78-2.6 4.23l1.9 1.12c.79-1.43 1.69-2.81 2.55-4.15.38-.58.75-1.15 1.11-1.73l.12-.19 1.29.84-.12.18-.81 1.27c-1.08 1.68-2.2 3.42-3.18 5.2l-1.9 3.31c-.42.7-.79 1.44-1.15 2.15-.2.41-.4.81-.62 1.21l-.1.2-1.41-.72.1-.2c.2-.37.39-.75.58-1.12.34-.68.7-1.38 1.08-2.05l1.67-2.91-1.92-1.1-1.69 2.95c-.39.68-.75 1.39-1.1 2.07-.19.39-.38.77-.58 1.15l-.1.19-1.37-.7zm-8.25 18.8c.54-1.5 1.14-3 1.72-4.46.29-.72.57-1.44.85-2.16l.08-.18.09-.21c.67-1.61 1.4-3.23 2.12-4.79.4-.89.81-1.78 1.21-2.68l.09-.21 1.39.66-3 6.62 2 .86 3-6.52 1.38.66-.09.2c-.39.89-.79 1.78-1.2 2.66-.71 1.55-1.44 3.16-2.09 4.76-.3.79-.62 1.58-.93 2.37-.55 1.38-1.12 2.81-1.63 4.23l-.08.21-1.44-.52.08-.21c.52-1.44 1.09-2.89 1.65-4.29.29-.72.57-1.44.85-2.16l-2-.85c-.28.71-.56 1.43-.85 2.14-.57 1.44-1.16 2.93-1.7 4.41l-.07.21-1.44-.52zm-9.27 53.46v-.45c0-.88.05-1.77.07-2.66 0-1.84.09-3.68.15-5.51v-.23l1.53.08v.22c-.1 1.57-.1 3.2-.1 4.72l-.06 2.32h2.21q0-1.19.06-2.37c0-1.52.08-3 .14-4.56v-.22l1.53.08-.23 8.34.19 7.31-1.53.07-.18-7.15h-2.25l.19 7.26-1.53.07zm6.21 27.06l-.67-3.74c-.11-.76-.2-1.52-.3-2.28 0-.35-.08-.7-.13-1.05l-2.19.29c0 .35.09.7.13 1.05.1.78.2 1.55.31 2.32l.68 3.8-1.51.27-.73-4.1-1-7.81-.31-4.16 1.53-.11.29 3.84c.08.77.18 1.54.28 2.31 0 .35.09.71.14 1.07l2.19-.28c0-.35-.09-.7-.13-1.05-.1-.76-.2-1.51-.28-2.28l-.29-3.78 1.53-.12.31 4 1 7.54.71 4zM72 342.56c-.37 2-.75 4.15-1 6.25l-.18 1.41c-.26 2-.53 4.09-.64 6.14v.23l-1.54-.12v-.23c0-.42.07-.84.1-1.26 0-.76.1-1.54.21-2.31l.42-3.32-2.19-.28-.43 3.38c-.11.77-.16 1.56-.22 2.32 0 .43 0 .86-.09 1.29v.22l-1.52-.12v-.22c.12-2.15.4-4.32.67-6.42l.18-1.4c.23-2.2.63-4.41 1-6.54l.27-1.46 1.5.28v.22c-.1.63-.22 1.27-.34 1.9-.29 1.65-.6 3.35-.79 5l2.19.3c.18-1.66.49-3.33.78-4.94.12-.63.23-1.26.34-1.89v-.23l1.5.28zm1.13-5.81v.22l-1.51-.33.91-3.91c.23-1 .46-2 .76-3l-2.14-.57c-.3 1-.54 2.08-.78 3.1l-.91 3.95-1.49-.32v-.22a155.56 155.56 0 014.11-15.18l.07-.22 1.47.48-.08.22c-.57 1.56-1 3.18-1.46 4.75-.18.66-.37 1.32-.56 2l2.13.58c.2-.65.38-1.31.56-2 .43-1.55.87-3.14 1.44-4.68l.07-.2 1.45.47-.07.21a150.78 150.78 0 00-3.98 14.65zM186.77 211.7q-5.19 1.13-10.25 2.59c1.49-.43 3-.85 4.52-1.24l3 3.62 2.13-.49 2.69-.62.22-.05.32 1.5-.21.05-2.44.56-1.62.37 1.57 1.91.48-.11 2.45-.56.22-.06.32 1.5-.21.05c-.72.18-1.45.34-2.17.5l3 3.69c1.46-.3 2.92-.6 4.4-.86z" fill="#fff"/><path d="M73.37 409l-2.14.57c.22.74.43 1.49.63 2.24.3 1.05.61 2.12.93 3.19h2.32c-.4-1.26-.77-2.54-1.12-3.79-.2-.74-.41-1.48-.62-2.21z" fill="#fff"/><path d="M185.11 218l-2.8.67.56 2.14c1.26-.31 2.54-.61 3.8-.9zm-3.92-.63c.93-.25 1.88-.47 2.82-.7l-3-3.62c-1.52.39-3 .81-4.52 1.24l-.25.07c-1.46.43-2.91.87-4.35 1.34l3 3.48c1.22-.37 2.45-.72 3.66-1.06.86-.24 1.75-.48 2.64-.75zm-3.66 4.93l1.13-.32.54-.15 2.22-.63-.2-.74-.37-1.39-2.25.63-2.64.76zM186 226l.46-.11c1.44-.35 2.89-.69 4.35-1l-3-3.69-.5.12-2.37.54c-.79.19-1.58.39-2.36.6l-2.15.61-.48.13-1.28.37 3 3.55c1.43-.38 2.87-.75 4.33-1.12zm54.84-12.56l1.41.18c2.2.24 4.4.64 6.53 1l1.47.26-.14.76-.14.75h-.22l-1-.17-1-.17-.83-.15c-1.39-.25-2.79-.49-4.2-.65l-.15 1.1-.15 1.1c.83.09 1.66.21 2.49.35s1.64.28 2.45.43l1.89.33h.22l-.28 1.51-1.48-.26c-1.67-.3-3.39-.61-5.11-.83l5.07 5.14c1.26.23 2.51.48 3.75.74h.24c1.19.25 2.38.51 3.56.79h.13q3.71.88 7.34 1.95l-5.63-5.91c-1.17-.29-2.35-.56-3.53-.82l-.22-.05.32-1.5 1.52.35-9.43-9.92-.41-.05q-1.59-.25-3.21-.45c-.71-.1-1.43-.18-2.15-.26l-1.15-.14h-.17l-2.8-.28-.55-.05c-1.06-.09-2.12-.17-3.19-.24l4.54 4.6c1.51.21 2.87.38 4.21.56z" fill="#d4e2fc"/><path d="M241.1 216.99l.25-1.94-2.89-.37 2.52 2.55.08.01z" fill="#d4e2fc"/><path d="M255.29 219.76l-1.52-.35-.32 1.5.32-1.5 1.52.35 1.91 2c-1.17-.29-2.35-.56-3.53-.82l-.22-.05.22.05c1.18.26 2.36.53 3.53.82s2.36.59 3.53.9l-1.7-2.05-1.33-.31zm-.72-4l-.33 1.49 2.46.57-1.6-1.95-.31-.07zm15.61 4.24l-.21-.07-1.48-.47 1.32 1.69z" fill="#a0bff9"/><path d="M262.82 227.69q-3.63-1.06-7.34-1.95 3.71.89 7.34 1.95zm43.57 27.78l4.09-2.76.63-.42a146.87 146.87 0 00-31.41-18.5l7.47 9.54a142.13 142.13 0 0119.22 12.14zm62.28 113.66A147.1 147.1 0 00314.55 255l-.35 1.68a20.88 20.88 0 00-.41 4.72A142.2 142.2 0 01355.7 415h5.68a147.41 147.41 0 007.29-45.87zM270.69 236l1.52.57-6.66-8-2.74-.83zm38.89 17.53l2.39 6.35zm-114.37-29.48c-1.48.26-2.94.56-4.4.86l3.89 4.73c1.28-.24 2.58-.46 3.87-.67zm59.46 7.05l-6.88-7a148.27 148.27 0 00-42.59-1.5l3.28 5.1q6.33-.58 12.81-.59a142.27 142.27 0 0133.38 3.99zm-69.12.58l-3.88-4.54A147.52 147.52 0 0081.2 415h5.68a142.16 142.16 0 0198.67-183.32zm5.24-6.76zm-9.11 2.22zm73.67-1.43zm-7.55-1.58z" fill="#d4e2fc"/><path d="M374.87 345.25c.12.77.21 1.54.31 2.32 0 .35.09.7.13 1.05l-2.19.29c0-.34-.09-.67-.13-1q-.14-1.15-.3-2.31l-.67-3.75-1.51.27.71 4 1 7.54.3 4 1.53-.11-.29-3.79c-.08-.76-.18-1.52-.28-2.28 0-.35-.09-.7-.13-1.05l2.19-.27c.05.35.09.71.14 1.06.1.77.2 1.54.28 2.32l.29 3.84 1.53-.12-.32-4.14-1-7.8-.73-4.11-1.5.27zm-3.68-7.8c-.2-.84-.39-1.68-.58-2.52-.32-1.39-.65-2.82-1-4.23l2.14-.55c.36 1.45.7 2.93 1 4.36.19.83.38 1.66.58 2.49l.05.22 1.5-.32-.06-.22c-.21-.89-.41-1.77-.61-2.66-.37-1.64-.75-3.34-1.2-5-.26-.88-.5-1.76-.75-2.64-.45-1.62-.92-3.29-1.45-4.91l-.07-.21-1.46.46.07.22c.49 1.48.92 3 1.34 4.5.21.75.41 1.5.63 2.25l-2.13.57c-.22-.75-.43-1.5-.64-2.24-.4-1.46-.82-3-1.31-4.42l-.07-.21-1.45.47.07.21c.5 1.55.95 3.14 1.38 4.69.24.87.49 1.75.74 2.62.42 1.56.79 3.17 1.14 4.72.2.89.4 1.79.62 2.67l.05.22 1.49-.32zm-5.99-20.98l-1.89-4.79 2.05-.83 1.92 4.86.65 1.93 1.45-.51-.08-.21c-.08-.24-.16-.47-.23-.71-.15-.43-.29-.86-.45-1.28l-2.23-5.66-.08-.21-.08-.2c-.57-1.4-1.21-2.8-1.83-4.15-.35-.77-.71-1.55-1.05-2.33l-.1-.21-1.38.65.09.2c.34.79.7 1.57 1.06 2.35.61 1.33 1.23 2.7 1.79 4.08l-2 .85c-.55-1.36-1.17-2.71-1.77-4-.35-.77-.7-1.53-1-2.31l-.09-.21-1.39.65.09.2c.34.78.69 1.55 1 2.32.62 1.35 1.27 2.76 1.83 4.16l2.24 5.67c.15.4.29.81.42 1.22l.24.69.07.21 1.44-.51zm-8.2-22.99c.39.66.78 1.35 1.14 2l1.76 3.44 1.37-.7-1.9-3.7c-.41-.75-.84-1.5-1.27-2.24-.23-.39-.46-.78-.68-1.18l-2-3.4-2.25-3.51-1.29.83 2.09 3.25c.4.66.79 1.34 1.18 2l.52.92-1.91 1.11c-.18-.3-.35-.6-.52-.9-.38-.67-.76-1.34-1.16-2l-2.06-3.2-1.29.82 2.18 3.4 1.89 3.29.68 1.17c.41.71.82 1.42 1.21 2.13l1.83 3.59 1.48-.6-1.73-3.38c-.36-.69-.76-1.37-1.14-2l-.51-.89 1.92-1.1c.14.23.32.54.46.85zm-9-14.3c.49.7 1 1.4 1.48 2.09l.13.18 1.26-.87-2.61-3.68c-.68-1-1.38-1.95-2.14-2.88l-3.64-4.63-1.48-1.66-1.17 1 1.34 1.54 3.22 4.1-1.76 1.35-3.17-4-1.32-1.53-1.17 1 1.39 1.62 3.52 4.48c.72.88 1.38 1.82 2 2.72l2.57 3.62 1.27-.87-.14-.19-1.47-2.07c-.83-1.17-1.68-2.38-2.57-3.55l1.76-1.33c.97 1.12 1.84 2.38 2.7 3.56zm-14.31-17.31c1.07 1.1 2.17 2.25 3.21 3.42l.15.17 1.14-1-.15-.17c-1.22-1.35-2.5-2.69-3.74-4a91.67 91.67 0 01-1.88-2l-.16-.16-.16-.16-5.3-5.06-1 1.13 5.25 5-1.57 1.56-5.17-4.93-1 1.13 5.3 5.06 2 2.1c1.18 1.23 2.4 2.5 3.55 3.79l.15.17 1.14-1-.15-.17c-1-1.15-2.1-2.27-3.14-3.36-.54-.56-1.08-1.12-1.61-1.69l1.57-1.55zm-10.35-11.93c-1.67-1.5-3.46-2.9-5.2-4.26l-.9-.71c-1.52-1.24-3.14-2.39-4.72-3.51l-1.62-1.15-.18-.13-.88 1.26.18.13c.63.46 1.27.91 1.91 1.36 1.26.88 2.56 1.79 3.78 2.78l-1.35 1.75c-1.2-1-2.47-1.86-3.7-2.73-.64-.44-1.27-.89-1.9-1.34l-.18-.14-.88 1.26.18.13 1.6 1.14c1.51 1.06 3.07 2.17 4.52 3.36l1 .75c1.64 1.29 3.35 2.63 4.93 4.05l.17.16 1-1.17-.17-.15c-.33-.27-.64-.55-1-.83-.57-.5-1.16-1-1.77-1.49l-2.63-2.06 1.36-1.75 2.68 2.11c.61.47 1.21 1 1.78 1.5.33.28.65.57 1 .84l.17.15 1-1.16zm-17.67-13.12c-1.76-1.13-3.58-2.3-5.45-3.33l-3.41-2c-.73-.44-1.5-.83-2.25-1.2l-1.23-.63-.2-.11-.71 1.36.2.11 1.14.58c.69.35 1.4.71 2.08 1.09l3 1.7-1.11 1.92-2.9-1.67c-.67-.38-1.37-.74-2-1.08-.38-.19-.76-.38-1.13-.58l-.2-.1-.71 1.36.2.1c.4.21.8.42 1.21.62.71.36 1.45.73 2.15 1.14l3.3 1.9c1.79 1 3.53 2.1 5.21 3.18l1.26.82.19.12.84-1.29-.19-.12c-.58-.36-1.15-.73-1.72-1.1-1.35-.87-2.73-1.77-4.16-2.56l1.12-1.91c1.45.81 2.87 1.72 4.24 2.61l1.73 1.11.19.12.84-1.28-.2-.13zM277 228.06l2.37.93c1.6.66 3.2 1.39 4.76 2.1.88.4 1.77.81 2.66 1.2l.2.09.66-1.38-6.52-2.95.86-2 6.61 3 .67-1.38-.22-.09-2.66-1.21c-1.57-.72-3.18-1.45-4.81-2.12l-.22-.08-.18-.07-2.16-.85c-1.46-.58-3-1.18-4.46-1.72l-.22-.08-.51 1.44.21.08c1.47.53 2.95 1.12 4.38 1.69l2.17.86-.85 2-2.16-.85c-1.4-.56-2.85-1.14-4.29-1.66l-.22-.07-.09.25 1.49 1.91c.82.29 1.67.63 2.53.96zm-35.94-10.82v-.25.25H241l-3.24-.41c-.76-.11-1.55-.17-2.31-.22-.42 0-.84 0-1.25-.09h-.23l-.13 1.53h.23c2.06.11 4.13.37 6.14.63l1.42.18 1.11.14-1.74-1.77zm-.22-3.8c-1.34-.18-2.7-.35-4.08-.48q-1.14-.12-2.28-.18h-.22l-.13 1.52h.23l1.29.1c.76 0 1.55.11 2.32.22l.49.06-1.7-1.72c1.38.13 2.74.3 4.08.48zm8 2.76l1 .17h.11-.11zm1.46-1.3l-.14.76zm-7.44.33l-.15 1.1.15-1.1c1.41.16 2.81.4 4.2.65-1.39-.25-2.79-.49-4.2-.65zm2.19 2.55zm4.28 2.31l.28-1.51zm-1.5-.27l1.48.26-1.48-.27z" fill="#a0bff9"/><path d="M247.85 219.82l1.48.27.28-1.51h-.22l-1.89-.33c-.81-.15-1.63-.3-2.45-.43s-1.66-.26-2.49-.35l.15-1.1.15-1.1c1.41.16 2.81.4 4.2.65l.83.15 1 .17 1 .17h.22l.14-.75.14-.76-1.47-.26c-2.13-.38-4.33-.78-6.53-1l-1.41-.18c-1.34-.18-2.7-.35-4.08-.48l1.7 1.72 2.89.37-.39 1.93v.25h-.1l1.74 1.76c1.72.22 3.44.53 5.11.83zm9.35 1.96l-1.91-2-1.52-.35-.32 1.5.22.05c1.18.24 2.33.51 3.53.8z" fill="#5b91f4"/><g fill="#a0bff9"><path d="M221.07 213.72v2.21l-7.16.18.07 1.54 7.32-.19 8.34.23.08-1.53h-.23c-1.54-.06-3.08-.09-4.62-.13l-2.3-.06v-2.21l2.32.06c1.57 0 3.14.07 4.72.13h.22l.08-1.53h-.23c-1.84-.07-3.67-.11-5.51-.16l-2.66-.06h-.45l-7.33.18.07 1.53zm-11.27 4.22l-.12-1.53-3.79.29c-.77.08-1.54.18-2.31.28l-1 .13-.27-2.2 1.06-.13c.78-.1 1.55-.2 2.32-.28l3.84-.29-.11-1.53-4.15.31-5.78.74.92 1.42.4-.05.1.83 1.75 2.71 3.15-.4zm-19.65 2.73l-.32-1.5-.22.06-2.45.56-.48.11 1.09 1.32-.5.12-2.37.54 2.37-.54.5-.12c.72-.16 1.45-.32 2.17-.5zm-7.84-2.01l.56 2.14zm2.8-.66l1.62-.37 2.44-.56.21-.05-.32-1.5-.22.05-2.69.62-2.13.49zm-4.26 1.07l.37 1.39zm5.82.83z"/><path d="M176 220.46l-1.09-1.27c1.22-.37 2.45-.72 3.66-1.06.88-.25 1.77-.49 2.66-.76s1.88-.47 2.82-.7c-.94.23-1.89.45-2.82.7s-1.78.51-2.66.76c-1.21.34-2.44.69-3.66 1.06l-1.24.38-.21.07.46 1.46.22-.07c.61-.2 1.23-.38 1.86-.57zm5.42.74l-2.22.63-.54.15.54-.15zm-1.03 1.89l-.48.13-1.28.37-1.1-1.29c-.92.27-1.85.54-2.76.84l-.21.07.46 1.46.22-.07c1.11-.36 2.25-.69 3.39-1l1.28-.37zm-25.22 5.38c.79-.34 1.56-.7 2.34-1.06 1.33-.61 2.71-1.23 4.09-1.79l.85 2c-1.35.55-2.7 1.16-4 1.76-.78.35-1.55.71-2.33 1.05l-.21.09.66 1.39.2-.09 2.3-1c1.36-.62 2.76-1.27 4.17-1.83h.07l5.61-2.21 1.22-.43.69-.23.22-.07-.51-1.45-1.9.65-4.79 1.88-.84-2 4.86-1.91 1.93-.65-.51-1.45-.21.07-.7.24c-.43.15-.87.29-1.29.45l-5.66 2.12-.2.08-.2.08c-1.41.57-2.81 1.2-4.16 1.82-.77.36-1.55.72-2.33 1.06l-.21.09.65 1.39zm-18.79 8.69l.83 1.29 3.25-2.08c.67-.41 1.36-.8 2-1.19l.89-.51 1.11 1.91-.91.52c-.67.38-1.33.76-2 1.16l-3.2 2.05.83 1.29 3.39-2.17 3.29-1.9 1.21-.69c.7-.4 1.39-.81 2.1-1.19l3.58-1.84-.7-1.36-3.38 1.73c-.68.36-1.36.75-2 1.13l-.9.52-1.09-1.92.93-.54c.66-.38 1.34-.78 2-1.14l3.43-1.75-.69-1.37-3.7 1.89c-.76.42-1.5.85-2.23 1.27l-1.19.69-3.41 2zm-1.71 5.62l-2.08 1.47c-1.17.83-2.38 1.68-3.54 2.57l-1.33-1.77c1.18-.9 2.41-1.77 3.61-2.61.7-.5 1.41-1 2.1-1.5l.18-.12-.87-1.27-3.7 2.63c-.95.68-1.93 1.37-2.86 2.13l-4.62 3.69-1.67 1.43 1 1.17 1.55-1.34 4.09-3.22 1.35 1.75-4 3.18-1.52 1.32 1 1.17 1.61-1.39 4.48-3.52c.88-.72 1.82-1.38 2.73-2l3.61-2.57-.87-1.26zm-23.43 16.62l1.57 1.56-4.94 5.18 1.13 1 5.06-5.3 2.1-2c1.23-1.19 2.51-2.41 3.8-3.57l.16-.14-1-1.15-.17.15c-1.15 1-2.27 2.11-3.36 3.15l-1.68 1.61-1.56-1.58 1.69-1.6c1.11-1.07 2.26-2.18 3.43-3.22l.17-.15-1-1.14-.16.15c-1.36 1.21-2.69 2.49-4 3.73l-2 1.88-.16.16-.16.15-5.06 5.31 1.14 1zm-17.51 21l1.36-1.92c.88-1.26 1.8-2.56 2.78-3.77l1.76 1.35c-1 1.19-1.87 2.47-2.74 3.7-.44.64-.88 1.27-1.34 1.89l-.14.19 1.26.88.13-.18 1.13-1.6c1.07-1.51 2.18-3.07 3.37-4.53l.74-.94c1.3-1.65 2.63-3.37 4.07-5l.15-.17-1.17-1-.15.17-.83 1c-.5.57-1 1.16-1.48 1.77l-2.07 2.63-1.75-1.36 2.11-2.68c.48-.62 1-1.21 1.51-1.79l.84-1 .14-.17-1.16-1-.14.17c-1.5 1.65-2.89 3.43-4.24 5.15l-.74.95c-1.24 1.51-2.39 3.14-3.5 4.71l-1.15 1.62-.14.19 1.26.87zm-10.5 17.4c.2-.38.39-.76.58-1.15.35-.68.71-1.39 1.1-2.07l1.69-2.95 1.92 1.1-1.67 2.91c-.38.67-.74 1.37-1.08 2.05-.19.37-.38.75-.58 1.12l-.1.2 1.36.71.1-.2c.22-.4.42-.8.62-1.21.36-.71.73-1.45 1.15-2.15l1.9-3.31c1-1.78 2.1-3.52 3.18-5.2l.81-1.27.12-.18-1.33-.84-.12.19c-.36.58-.73 1.15-1.11 1.73-.86 1.34-1.76 2.72-2.55 4.15l-1.9-1.12c.8-1.45 1.71-2.86 2.6-4.23.37-.58.75-1.16 1.11-1.74l.12-.19-1.28-.84-.12.19-.75 1.25c-1.13 1.76-2.3 3.58-3.33 5.45l-2 3.4c-.43.74-.82 1.51-1.2 2.26-.21.41-.41.82-.63 1.23l-.11.2 1.37.7zm-8.17 18.61c.54-1.48 1.13-3 1.7-4.41.29-.71.57-1.43.85-2.14l2 .85c-.28.72-.56 1.44-.85 2.16-.56 1.4-1.13 2.85-1.65 4.29l-.08.21 1.44.52.08-.21c.51-1.42 1.08-2.85 1.63-4.23.31-.79.63-1.58.93-2.37.65-1.6 1.38-3.21 2.09-4.76.41-.88.81-1.77 1.2-2.66l.09-.2-1.38-.66-3 6.52-2-.86 3-6.62-1.39-.66-.09.21c-.4.9-.81 1.79-1.21 2.68-.72 1.56-1.45 3.18-2.12 4.79l-.09.21-.08.18c-.28.72-.56 1.44-.85 2.16-.58 1.45-1.18 3-1.72 4.46l-.07.21 1.44.52zm2.11 5.46l-1.45-.47-.07.2c-.57 1.54-1 3.13-1.44 4.68-.18.65-.36 1.31-.56 2l-2.13-.58c.19-.66.38-1.32.56-2 .44-1.57.89-3.19 1.46-4.75l.08-.22-1.47-.48-.07.22A155.56 155.56 0 0068 335.63v.22l1.49.32.91-3.95c.24-1 .48-2.08.78-3.1l2.14.57c-.3 1-.53 2-.76 3l-.91 3.91 1.51.33v-.22a150.78 150.78 0 014-14.67zM70.71 341c-.11.63-.22 1.26-.34 1.89-.29 1.61-.6 3.28-.78 4.94l-2.19-.3c.19-1.69.5-3.39.79-5 .12-.63.24-1.27.34-1.9v-.22l-1.5-.28-.27 1.46c-.38 2.13-.78 4.34-1 6.54l-.18 1.4c-.27 2.1-.55 4.27-.67 6.42v.22l1.52.12v-.22c0-.43.06-.86.09-1.29.06-.76.11-1.55.22-2.32l.43-3.38 2.19.28-.36 3.31c-.11.77-.16 1.55-.21 2.31 0 .42-.06.84-.1 1.26v.23l1.54.12v-.23c.11-2.05.38-4.13.64-6.14l.18-1.41c.22-2.1.6-4.21 1-6.25l.26-1.48-1.5-.28zm-4.83 28.35h2.22l.18 7.15 1.53-.07-.19-7.31.23-8.34-1.53-.08v.22c-.06 1.52-.1 3-.14 4.56q0 1.18-.06 2.37h-2.21l.06-2.32c0-1.57.07-3.15.13-4.72v-.22l-1.53-.08v.23c-.06 1.83-.11 3.67-.15 5.51 0 .89 0 1.78-.07 2.66v.45l.19 7.33 1.53-.07zm4.53 15.28l-.31-4-1.53.12.29 3.78c.08.77.18 1.52.28 2.28 0 .35.09.7.13 1.05l-2.19.28c0-.36-.09-.72-.14-1.07-.1-.77-.2-1.54-.28-2.31l-.29-3.84-1.53.11.32 4.14 1 7.81.73 4.1 1.51-.27-.68-3.8c-.11-.77-.21-1.54-.31-2.32 0-.35-.09-.7-.13-1.05l2.19-.29c.05.35.09.7.13 1.05.1.76.19 1.52.3 2.28l.67 3.74 1.51-.27-.71-4zm4.23 23.25c-.42-1.56-.78-3.17-1.14-4.73-.2-.89-.4-1.78-.61-2.67v-.21l-1.5.31v.23c.2.83.39 1.67.58 2.5.32 1.39.64 2.83 1 4.24l-2.14.56c-.36-1.46-.7-2.94-1-4.37-.19-.83-.38-1.66-.58-2.49v-.21l-1.5.31.06.23c.21.89.41 1.79.61 2.68.38 1.64.76 3.32 1.2 5 .26.89.5 1.77.75 2.65.29 1 .59 2.08.9 3.12h1.6c-.32-1.07-.63-2.14-.93-3.19-.2-.75-.41-1.5-.63-2.24l2.14-.57c.21.73.42 1.47.62 2.21.35 1.25.72 2.53 1.12 3.79h1.6c-.48-1.49-.91-3-1.33-4.5-.32-.9-.57-1.78-.82-2.65zm300.02-5.47l-1.49-.33-.91 3.92c-.23 1-.48 2.1-.78 3.14l-2.14-.57c.3-1 .54-2.07.77-3.09l.9-3.87-1.5-.33-.05.22c-1 4.62-2.23 9.15-3.61 13.5h1.63c.32-1 .61-2 .89-3 .18-.66.37-1.32.56-2l2.13.59c-.19.65-.38 1.31-.56 2s-.45 1.62-.69 2.43h1.57c1.22-4 2.32-8.16 3.23-12.37zm1.45-20.22l-.09 1.29c-.06.76-.11 1.55-.22 2.32l-.43 3.39-2.19-.29.42-3.32c.11-.76.16-1.54.21-2.3 0-.42.06-.84.1-1.27v-.22l-1.54-.13v.23c-.11 2.06-.38 4.15-.64 6.17l-.18 1.38c-.22 2.11-.6 4.22-1 6.26l-.26 1.47 1.5.28v-.22c.11-.64.23-1.27.34-1.9.29-1.61.6-3.27.78-4.94l2.19.3c-.18 1.69-.49 3.38-.79 5-.12.64-.23 1.28-.34 1.93v.21l1.5.28.27-1.46c.38-2.13.78-4.34 1-6.53l.18-1.41c.27-2.09.55-4.26.67-6.41v-.22l-1.52-.13zm2.13-13.29l-.18-7.32-1.54.07.19 7.25h-2.22l-.18-7.15-1.53.07.19 7.32-.23 8.34 1.53.08v-.23c.05-1.52.09-3 .13-4.56 0-.79 0-1.58.06-2.37h2.21l-.06 2.31c0 1.58-.07 3.15-.13 4.72v.22l1.53.09v-.23c.07-1.84.11-3.71.15-5.52 0-.88 0-1.77.07-2.66v-.45z"/></g><path d="M270.71 236l8.08 8.5-6.56-7.93zm3.83 142.83a52.8 52.8 0 01-3.25 11.06l8.5 4.91a14.23 14.23 0 01-2.81-5.68zm15.24-112.17l-35.11-35.56a142.27 142.27 0 00-33.38-4q-6.48 0-12.81.59l26.16 40.66 15.89 24.7 7.1-4.78zm-95.08-37.02l25.39 30.83L198.57 229c-1.29.18-2.57.4-3.87.64z" fill="#333"/><path d="M313.79 261.41a20.76 20.76 0 001.31 6.78l-3.1-8.31 7.32 19.42a14.3 14.3 0 01.85 6.17l9.23 11.8a1.33 1.33 0 01-.21 1.87l-2 1.64a1.34 1.34 0 01-1.88-.19l-6.74-8.15-2.57 9.26a31.74 31.74 0 01-12.89 18 31.78 31.78 0 01-21.5 5.19l-11.48-1.38 8.54 13.28a1.34 1.34 0 01-.39 1.85l-2.17 1.44a1.35 1.35 0 01-1.86-.36L261.41 321l-.31-.22-.22-.16a14.34 14.34 0 01-1.31-1.05l-20.23-18.68 11.51 10.63a20.75 20.75 0 00-10.31-5.16l-2.46-.45a2.1 2.1 0 01-1.38-.9 2.12 2.12 0 01.57-2.93l1.94-1.31 3.41-2.29-57.06-66.75A142.16 142.16 0 0086.88 415h13.81a14.1 14.1 0 01.36-8.11l4.65-13.38a31.77 31.77 0 0114.11-17.05c.21-.13.42-.24.64-.36H85a2.11 2.11 0 01-2.09-2.1 2.09 2.09 0 01.64-1.51l1.79-1.75a20.78 20.78 0 005.67-10l-3.6 15.24 6.34-26.8a14.12 14.12 0 014.54-7.46l10.71-9.31a31.75 31.75 0 0120.74-7.71h.73l-9.42-5.44-15.49-8.95-3.75-2.16-2-1.17a2.11 2.11 0 01-.78-2.89 2.14 2.14 0 011.31-1l2.42-.62a20.74 20.74 0 009.94-5.86L102 308l18.9-20a14.13 14.13 0 017.66-4.19l13.91-2.66a31.77 31.77 0 0121.82 3.69c.22.12.42.25.63.38l-17.41-30.15-.3-.54a2.11 2.11 0 012.4-3.09l2.41.67a20.74 20.74 0 0011.53-.1l-15 4.49 26.38-7.9a14.08 14.08 0 018.73.2l13.34 4.66a31.74 31.74 0 0117 14.11 31.74 31.74 0 013.69 21.81l-2.66 13.92a14.2 14.2 0 01-4.19 7.66l-7.5 7.07A54.13 54.13 0 01275 362.15h82.74a2.12 2.12 0 011.48 3.63l-1.79 1.75a20.63 20.63 0 00-5.68 10l3.61-15.24-6.36 26.83a14.11 14.11 0 01-4.53 7.47l-10.72 9.26a32.05 32.05 0 01-9.15 5.5 33 33 0 016.24 3.65h24.86a142.2 142.2 0 00-41.91-153.59z" fill="#333"/><path d="M306.39 255.47a142.13 142.13 0 00-19.22-12.14L300 259.76l1.78-1.2zM183.2 324l-2.94 9.83a54.63 54.63 0 018.2-7.74l-4.85-8.41a14.1 14.1 0 01-.41 6.32zM163 343.45a14.15 14.15 0 012.8 5.68l.72 3 1.63 6.88a54.15 54.15 0 013.22-10.76zm99.56 60.7a54.36 54.36 0 01-8.33 7.93l1.68 2.92h3.43c.06-.25.12-.5.19-.75zM161.57 376.1h-3.63a14.38 14.38 0 014.52 2.78l.45.44.3.3 7 7.41a53 53 0 01-2.58-10.92h-6.05zm10.67 29.45l-.76.44-1.56.9a14.48 14.48 0 012.07-.19 15.23 15.23 0 012.13.13h.16l.9.16c.29.07.59.14.88.23h.17l9.85 2.95a54.35 54.35 0 01-7.77-8.2l-3.55 2z" fill="#333"/><path d="M194.7 229.64l-3.89-4.73c-1.46.3-2.91.64-4.35 1l-.46.09c-1.44.35-2.88.72-4.3 1.12l3.88 4.54c2.98-.76 6.03-1.43 9.12-2.02z" fill="#a0bff9"/><path d="M244.94 296.85L228.65 273l-8.56-12.54-25.39-30.82c-3.09.59-6.14 1.26-9.15 2l57.06 66.75z"/><path d="M91 360.69a20.78 20.78 0 01-5.67 10l-1.79 1.75a2.09 2.09 0 00-.64 1.51 2.11 2.11 0 002.1 2.15h.36a12.33 12.33 0 002-.17zm1.19 13.15l4.51-3.63s5.42-4.68 9.28-5.94c3.52-1.16 8-.62 12-1.22 3.8-.56 6.54-2.36 11.74-2.36s7.94 1.8 11.74 2.36c4.07.6 8.51.06 12 1.22 2.85.93 6.56 3.73 8.29 5.13a54.07 54.07 0 014.66-17.23l-.72-3a14.15 14.15 0 00-2.8-5.68l-3.65-2.1-6.43-3.72-22.38-12.91h-.73a31.75 31.75 0 00-20.7 7.65l-10.72 9.26a14.12 14.12 0 00-4.54 7.46l-6.34 26.8a11.18 11.18 0 001.66-.41 10 10 0 003.13-1.68zm60.32-19.34a11.83 11.83 0 01-8 4.29l10.87-13a11.85 11.85 0 01-2.87 8.71zm-8.06-17.39a18 18 0 01-7.2 19.79zm-14.6-3.11a18 18 0 010 21.07zm-7.78 11.89a16.82 16.82 0 01.41 11.06l-7.21-19.79a16.79 16.79 0 016.8 8.68zm-9.68 4.29a11.86 11.86 0 012.84 8.66l-10.87-13a11.85 11.85 0 018.03 4.29z" fill="#ffcf70"/><path d="M141.63 372.76l13.92 2.66a15.16 15.16 0 012.39.68h3.63v-1.36c0-.91 0-1.81.07-2.71s.12-1.76.2-2.63c-1.73-1.4-5.44-4.2-8.29-5.13-3.52-1.16-8-.62-12-1.22-3.8-.56-6.54-2.36-11.74-2.36s-7.94 1.8-11.74 2.36c-4.07.6-8.51.06-12 1.22-3.86 1.26-9.28 5.94-9.28 5.94l-4.51 3.63a10 10 0 01-3.12 1.68 11.18 11.18 0 01-1.66.41 12.33 12.33 0 01-2 .17h35.07a31.85 31.85 0 0121.06-3.34zM129.85 334v21a18 18 0 000-21.07zm-7.78 11.84a16.79 16.79 0 00-6.8-8.73l7.21 19.79a16.82 16.82 0 00-.41-11.06zm21.93 2.32a16.79 16.79 0 00.41-11.05l-7.2 19.79a16.81 16.81 0 006.79-8.74zm-31.61 1.97a11.85 11.85 0 00-8-4.29l10.87 13a11.86 11.86 0 00-2.87-8.71zm40.12 4.37a11.85 11.85 0 002.83-8.66l-10.87 13a11.83 11.83 0 008.04-4.34z" fill="#ffc043"/><path d="M137.8 407.63c4.5-2.6 7.78-2.41 11.35-3.82 3.83-1.52 7.4-4.21 11-5a25.54 25.54 0 017-.06 53.86 53.86 0 01-5.52-20.57c.27.21.54.44.8.67a14.38 14.38 0 00-4.52-2.78 15.16 15.16 0 00-2.39-.68l-13.92-2.66a31.85 31.85 0 00-21.17 3.34c-.22.12-.43.23-.64.36a31.77 31.77 0 00-14.11 17.05l-4.65 13.38a14.1 14.1 0 00-.36 8.11h28.78c2.62-2.25 4.19-4.97 8.35-7.34zm-2.74-5l-10.54-18.24a18 18 0 0110.54 18.24zm7.34-2.06l-3.65-20.75a18 18 0 013.65 20.75zm12-9.71a11.88 11.88 0 01-4.81 7.74l2.95-16.6a11.81 11.81 0 011.88 8.89zm-46 16.57a12.21 12.21 0 0115.89 5.79zm5.09-13A18 18 0 01129.62 408zm57.99 11.56l-1.56.9zm-8.57-26.67l.3.3 7 7.41-7-7.41z" fill="#ffcf70"/><path d="M167.51 407.49a13.7 13.7 0 012.41-.6l1.56-.9c-.38-.54-.75-1.09-1.12-1.64l-.22-.35c-.3-.46-.59-.94-.88-1.41l-.15-.27c-.31-.52-.62-1.06-.91-1.59l-.07-.12c-.32-.6-.63-1.2-.94-1.8a25.54 25.54 0 00-7 .06c-3.63.76-7.2 3.45-11 5-3.57 1.41-6.85 1.22-11.35 3.82-4.16 2.4-5.73 5.09-8.33 7.37h18.59a31.71 31.71 0 016-2.85zm-42.99-23.07l10.54 18.24a18 18 0 00-10.54-18.24zm-.79 14.19a16.85 16.85 0 00-10.25-4.17L129.62 408a16.81 16.81 0 00-5.89-9.39zm15.02-18.76l3.65 20.75a18 18 0 00-3.65-20.75zm-21.25 27.31a11.9 11.9 0 00-9.11.3l15.89 5.79a11.85 11.85 0 00-6.78-6.09zm32.11-8.53a12.23 12.23 0 002.93-16.63z" fill="#ffc043"/><path d="M172 406.7a14.48 14.48 0 00-2.07.19 13.7 13.7 0 00-2.41.6l-13.38 4.66a31.71 31.71 0 00-6 2.85h20.21l-.12-.34c.22.1.43.22.64.34h10.63a54.8 54.8 0 01-7.5-8.3zm3.19.3l-.9-.16zm-1.06-.17a15.23 15.23 0 00-2.13-.13 15.23 15.23 0 012.13.13zm1.94.42h.17l9.85 2.95-9.85-2.95z" fill="#ffcf70"/><path d="M168.31 415h.52c-.21-.12-.42-.24-.64-.34z" fill="#ffc043"/><path d="M252.33 414.56l-.49.44h.42zm1.9-2.48h-.01l1.69 2.92z" fill="#ffcf70"/><path d="M166.47 352.17a54.07 54.07 0 00-4.66 17.23c.62.49 1 .81 1 .81l4.51 3.63.06.05c-.13-1.57-.22-3.16-.22-4.76a54.85 54.85 0 01.95-10.08l-1.63-6.88zM161.61 372c0-.88.12-1.76.2-2.63-.08.9-.15 1.78-.2 2.63z" fill="#ffc043"/><path d="M162.8 370.21s-.37-.32-1-.81c-.08.87-.15 1.75-.2 2.63s-.07 1.8-.07 2.71v1.36h6.05c-.1-.74-.18-1.48-.25-2.22l-.06-.05z" fill="#ff6937"/><path d="M172.24 405.55l-.76.44zm-9.33-26.23l-.45-.44c-.26-.23-.53-.46-.8-.67a53.86 53.86 0 005.52 20.57c2.25.23 4 .57 4 .57l5.72.89h.1a54 54 0 01-6.8-13.24l-7-7.41zm6.19 22.98zm-.98-1.71c-.32-.6-.63-1.2-.94-1.8.31.6.62 1.21.94 1.8zm2.01 3.41c-.3-.46-.59-.94-.88-1.41.29.41.58.93.88 1.41zm1.34 2c-.38-.54-.75-1.08-1.12-1.64.37.52.74 1.07 1.12 1.64z" fill="#ffc043"/><path d="M171.19 399.35s-1.76-.34-4-.57c.31.6.62 1.2.94 1.8l.07.12c.29.54.6 1.07.91 1.59l.15.27c.29.47.58.95.88 1.41l.22.35c.37.56.74 1.1 1.12 1.64l.76-.44 2.53-1.46 3.55-2c-.45-.59-.89-1.19-1.32-1.79h-.09z" fill="#ff6937"/><path d="M176.24 407.29h-.17c-.29-.09-.59-.16-.88-.23l-.9-.16h-.16a15.23 15.23 0 00-2.13-.13 54.8 54.8 0 007.51 8.3h13.05a54.84 54.84 0 01-6.46-4.76zm76.24 6.3v-.24c-.81.57-1.63 1.12-2.47 1.65h1.81l.49-.44z" fill="#ffc043"/><path d="M254.23 412.08c-.57.44-1.14.86-1.73 1.27v.24l-.15 1-.07.44h3.65z" fill="#ffc043"/><path d="M277.69 407.26c-2.7-3-5.06-9.79-5.06-9.79l-2.09-5.39a2.56 2.56 0 00-.11-.24 54.06 54.06 0 01-7.87 12.31l-3 10.1c-.07.25-.13.5-.19.75h29c-.25-.23-.51-.45-.79-.67-3.3-2.56-7.41-4.33-9.89-7.07z" fill="#ffcf70"/><path d="M292.24 405.85l-10.72-9.26a14.61 14.61 0 01-1.73-1.79l-8.5-4.91c-.27.66-.56 1.3-.86 1.95a2.56 2.56 0 01.11.24l2.09 5.39s2.36 6.77 5.06 9.79c2.48 2.76 6.59 4.51 9.82 7.07.28.22.54.44.79.67h20.39v-1.74a31.76 31.76 0 01-16.45-7.41z" fill="#ffc043"/><path d="M351.72 377.57a20.63 20.63 0 015.68-10l1.79-1.75a2.12 2.12 0 00-1.48-3.63h-.36a11.24 11.24 0 00-2 .18z" fill="#ffcf70"/><path d="M350.54 364.42L346 368s-5.43 4.68-9.28 5.94c-3.52 1.16-8 .62-12 1.22-3.8.56-6.53 2.37-11.73 2.37s-7.94-1.81-11.74-2.37c-4.07-.6-8.51-.06-12-1.22-3.85-1.26-9.28-5.94-9.28-5.94l-4.5-3.62-.23-.17c.14 1.61.23 3.23.23 4.88a54.43 54.43 0 01-.89 9.7l2.42 10.33a14.23 14.23 0 002.81 5.68 14.61 14.61 0 001.73 1.79l10.72 9.26a31.76 31.76 0 0016.45 7.41v-3.44c0-2.43 5.64-2.36 12.6.18 1.14.41 2.24.87 3.29 1.35a32.05 32.05 0 009.15-5.5l10.72-9.26a14.11 14.11 0 004.53-7.47l6.35-26.79a10.44 10.44 0 00-1.67.41 10 10 0 00-3.14 1.68zm-45.05 16.93l-7.21 19.8a18 18 0 017.21-19.8zm-15.26 2.41a11.82 11.82 0 018-4.3l-10.87 13a11.86 11.86 0 012.87-8.7zm22.65 20.55a18.06 18.06 0 010-21.07zm7.79-11.9a16.76 16.76 0 01-.41-11.06l7.2 19.8a16.8 16.8 0 01-6.79-8.74zm9.67-4.29a11.83 11.83 0 01-2.83-8.66l10.87 13a11.83 11.83 0 01-8.04-4.34z" fill="#ffcf70"/><path d="M275.43 364.42l4.5 3.62s5.43 4.68 9.28 5.94c3.53 1.16 8 .62 12 1.22 3.8.56 6.54 2.37 11.74 2.37s7.93-1.81 11.73-2.37c4.07-.6 8.52-.06 12-1.22 3.93-1.26 9.32-5.98 9.32-5.98l4.5-3.62a10 10 0 013.12-1.68 10.44 10.44 0 011.67-.41 11.24 11.24 0 012-.18H275c.08.7.17 1.39.23 2.1zm37.45 39.89v-21.07a18.06 18.06 0 000 21.07zm7.79-11.9a16.8 16.8 0 006.79 8.74l-7.2-19.8a16.76 16.76 0 00.41 11.06zm-22.39 8.74l7.21-19.8a18 18 0 00-7.21 19.8zm32.06-13.03a11.83 11.83 0 008 4.29l-10.87-13a11.83 11.83 0 002.87 8.71zm-32.08-8.66a12.25 12.25 0 00-10.87 13z" fill="#ffc043"/><path d="M148.5 256.51l15-4.49a20.74 20.74 0 01-11.53.1l-2.41-.67a2.11 2.11 0 00-2.4 3.09l.3.54-.12-.22a11.36 11.36 0 001.16 1.65zm1.19 1.24a9.87 9.87 0 003 1.86l5.4 2.09s6.76 2.36 9.78 5.07c2.76 2.47 4.51 6.59 7.07 9.81 2.39 3 5.32 4.48 7.92 9s2.41 7.78 3.82 11.35c1.51 3.83 4.2 7.4 5 11 .84 4-.5 11-.5 11l-.89 5.72v.12a53.9 53.9 0 0113.09-6.77l7.5-7.07a14.2 14.2 0 004.19-7.66l2.66-13.92a31.74 31.74 0 00-3.73-21.77 31.74 31.74 0 00-17-14.11l-13.38-4.65a14.08 14.08 0 00-8.73-.2l-26.38 7.9a10 10 0 001.18 1.23zm49.92 44.43a11.88 11.88 0 01-7.74-4.81l16.65 2.93a11.79 11.79 0 01-8.91 1.88zm1.25-10.5a16.81 16.81 0 01-11-1.52l20.75-3.65a16.81 16.81 0 01-9.75 5.17zm5.22-19.4a18 18 0 01-18.25 10.54zm-14.2-.79a16.76 16.76 0 01-9.37 5.89l13.54-16.14a16.76 16.76 0 01-4.17 10.25zM183 256.15a12.23 12.23 0 01-5.75 15.85z" fill="#ffcf70"/><path d="M178.35 301.89l4.65 13.38a14.64 14.64 0 01.6 2.41l4.85 8.41c.59-.45 1.18-.88 1.78-1.3v-.12l.89-5.72s1.34-7 .5-11c-.76-3.63-3.45-7.2-5-11-1.41-3.57-1.22-6.85-3.82-11.35s-5.53-6-7.92-9c-2.56-3.22-4.31-7.34-7.07-9.81-3-2.71-9.78-5.07-9.78-5.07l-5.4-2.09a9.87 9.87 0 01-3-1.86 10 10 0 01-1.19-1.24 11.36 11.36 0 01-1.16-1.65l.12.22 17.41 30.15a31.78 31.78 0 0113.54 16.64zm20.31-21.4a16.8 16.8 0 007.42-8.21l-18.25 10.54a16.84 16.84 0 0010.83-2.33zm-6.78-9a16.76 16.76 0 004.17-10.25l-13.54 16.14a16.76 16.76 0 009.37-5.89zm8.98 20.19a16.81 16.81 0 009.78-5.17l-20.75 3.65a16.81 16.81 0 0010.97 1.52zm-17.53-26.43a11.78 11.78 0 00-.3-9.1L177.25 272a11.89 11.89 0 006.08-6.75zm16.28 36.93a11.79 11.79 0 008.91-1.88l-16.65-2.93a11.88 11.88 0 007.74 4.81z" fill="#ffc043"/><path d="M102 308l10.75-11.4a20.74 20.74 0 01-9.94 5.86l-2.42.62a2.14 2.14 0 00-1.31 1 2.11 2.11 0 00.78 2.89l2 1.17-1.71-1a13.22 13.22 0 001.85.86z" fill="#ffcf70"/><path d="M107.14 308.62l5.72-.89s7-1.34 11-.5c3.63.76 7.21 3.44 11 5 3.57 1.41 6.84 1.22 11.34 3.82s6 5.53 9 7.92c3.22 2.55 7.34 4.31 9.81 7.07 2.71 3 5.07 9.78 5.07 9.78l2.09 5.4v.06a54 54 0 018-12.41l3.03-9.87a14.1 14.1 0 00.41-6.32 14.64 14.64 0 00-.6-2.41l-4.66-13.38a31.78 31.78 0 00-13.48-16.66c-.21-.13-.41-.26-.63-.38a31.77 31.77 0 00-21.82-3.69l-13.91 2.66a14.13 14.13 0 00-7.66 4.19L102 308a12.83 12.83 0 001.65.48 10.06 10.06 0 003.49.14zM169.05 322a11.85 11.85 0 01-9.11-.3l15.89-5.7a11.87 11.87 0 01-6.78 6zm1.72-19.09a18 18 0 01-16.14 13.54zm-11.06-10a18.06 18.06 0 01-10.54 18.25zm-14.21-4.55a18.06 18.06 0 01-3.66 20.75zm-9 9.84a11.81 11.81 0 01-1.88 8.92l-2.93-16.66a11.88 11.88 0 014.8 7.73zm22.8 43.15l3.65 2.1 8.36 4.84zm-53.72-31.02l15.49 8.95 9.42 5.43 22.38 12.92z" fill="#ffcf70"/><path d="M152.87 337.63l6.43 3.72 12 6.94c.28-.69.59-1.37.91-2.05v-.06l-2.09-5.4S167.75 334 165 331c-2.47-2.76-6.59-4.52-9.81-7.07-3-2.39-4.49-5.32-9-7.92s-7.77-2.41-11.34-3.82c-3.83-1.52-7.41-4.2-11-5-4-.84-11 .5-11 .5l-5.72.89a10.06 10.06 0 01-3.54-.1A12.83 12.83 0 01102 308a13.22 13.22 0 01-1.83-.86l1.71 1 3.75 2.16zm4.51-33.91a16.81 16.81 0 002.33-10.82l-10.54 18.25a16.82 16.82 0 008.21-7.43zM147 299.31a16.78 16.78 0 00-1.51-11l-3.66 20.75a16.84 16.84 0 005.17-9.75zm17.88 13a16.82 16.82 0 005.89-9.37l-16.14 13.54a16.79 16.79 0 0010.25-4.17zm-28.39-14.12a11.88 11.88 0 00-4.81-7.74l2.93 16.66a11.81 11.81 0 001.88-8.92zM175.83 316l-15.89 5.78a12.22 12.22 0 0015.89-5.78z" fill="#ffc043"/><path d="M254.23 412.08a54.27 54.27 0 0016.2-20.24c.3-.65.59-1.29.86-1.95a52.8 52.8 0 003.25-11.06 54.43 54.43 0 00.89-9.7c0-1.65-.09-3.27-.23-4.88-.06-.71-.15-1.4-.23-2.1a54.11 54.11 0 00-84.73-37.36c-.6.42-1.19.85-1.78 1.3a54.63 54.63 0 00-8.2 7.74 54 54 0 00-8 12.41c-.32.68-.63 1.36-.91 2.05a54.15 54.15 0 00-3.22 10.76 54.85 54.85 0 00-.95 10.08c0 1.6.09 3.19.22 4.76.07.74.15 1.48.25 2.22A53 53 0 00170.2 387a54 54 0 006.8 13.22c.43.6.87 1.2 1.32 1.79a54.35 54.35 0 007.77 8.2 54.84 54.84 0 006.46 4.76h15.21a47.83 47.83 0 1127.06 0H250c.84-.53 1.66-1.08 2.47-1.65.62-.38 1.19-.8 1.76-1.24z" fill="#a0bff9"/><path d="M269.12 369.13A47.83 47.83 0 10207.76 415h27.06a47.85 47.85 0 0034.3-45.87zm-86.89 0a39.06 39.06 0 1139 39.09 39.06 39.06 0 01-39-39.11z" fill="#d4e2fc"/><path d="M260.35 369.18a39.06 39.06 0 10-39.1 39 39.05 39.05 0 0039.1-39zm-46.41 36.05a36.81 36.81 0 1142.13-48.16 38.51 38.51 0 011.39 5.12 16.9 16.9 0 01-4.74 15.11l-23.27 23.27a17.07 17.07 0 01-15.51 4.66z" fill="#870f00"/><path d="M257.46 362.19a38.51 38.51 0 00-1.39-5.12 36.81 36.81 0 10-42.13 48.16 17.07 17.07 0 0015.51-4.66l23.27-23.27a16.9 16.9 0 004.74-15.11zm-57.86-6.31a4.2 4.2 0 011.29 2.16 6.27 6.27 0 01.24 1.28 5.94 5.94 0 01-1.29.1 4.23 4.23 0 01-2.42-.69 4.94 4.94 0 01-1.59-3.49 4.92 4.92 0 013.77.64zm-3.42 8.87a4.24 4.24 0 011.86-1.7 6.46 6.46 0 011.2-.48 6.19 6.19 0 01.35 1.24 4.31 4.31 0 01-.2 2.51 4.94 4.94 0 01-3.11 2.25 4.94 4.94 0 01-.1-3.82zm5.82 18.94a6.21 6.21 0 01-.49 1.2 6.79 6.79 0 01-1.15-.6 4.32 4.32 0 01-1.67-1.89c-.67-1.66.44-3.66.52-3.79a4.84 4.84 0 012.86 2.56 4.34 4.34 0 01-.07 2.52zm14.31 13a4.25 4.25 0 01-2.46.55 6.72 6.72 0 01-1.28-.17 6.09 6.09 0 01.31-1.25 4.24 4.24 0 011.42-2.08 4.9 4.9 0 013.81-.41 4.87 4.87 0 01-1.79 3.38zM221 344.6a6.64 6.64 0 01-1.27.24 4.23 4.23 0 01-2.48-.45c-1.56-.89-1.92-3.15-1.94-3.3a4.91 4.91 0 013.83.24 4.3 4.3 0 011.51 2 6.76 6.76 0 01.36 1.25zm4.37 40.7a4.94 4.94 0 01-2.27 3.08 4.88 4.88 0 01-1.29-3.61 4.22 4.22 0 011.25-2.18 6.1 6.1 0 011-.83 6.27 6.27 0 01.72 1.07 4.26 4.26 0 01.54 2.47zm-1.13-41.3a4.9 4.9 0 01.61-3.79 4.24 4.24 0 012.15-1.31 6.13 6.13 0 011.27-.24 6.29 6.29 0 01.11 1.29 4.24 4.24 0 01-.68 2.42 4.91 4.91 0 01-3.46 1.63zm9.86 42.53a4.21 4.21 0 01-2.32 1c-1.79.11-3.33-1.58-3.43-1.7a4.92 4.92 0 013.33-1.89 4.21 4.21 0 012.37.85 6.88 6.88 0 011 .84 6.39 6.39 0 01-.95.87zm0-38.18a4.28 4.28 0 01-2.32 1c-1.79.11-3.33-1.59-3.43-1.71a4.92 4.92 0 013.33-1.89 4.29 4.29 0 012.37.86 6.2 6.2 0 011 .84 6.74 6.74 0 01-.95.87zm5.28 14.21c-1 1.52-3.24 1.77-3.4 1.78a4.93 4.93 0 01.43-3.81 4.31 4.31 0 012.08-1.41 6.43 6.43 0 011.26-.3 6.72 6.72 0 01.17 1.28 4.22 4.22 0 01-.54 2.43zm11.46-3.73a4.87 4.87 0 013 2.35 4.26 4.26 0 01.11 2.51 6.45 6.45 0 01-.4 1.24 6.38 6.38 0 01-1.18-.52 4.17 4.17 0 01-1.8-1.76c-.77-1.65.2-3.72.27-3.85zm.6 12.13a5 5 0 01-3.06-2.31 4.91 4.91 0 013.63-1.24 4.22 4.22 0 012.16 1.28 6.65 6.65 0 01.82 1 5.82 5.82 0 01-1.08.71 4.29 4.29 0 01-2.47.53z"/><path d="M235 347.41a6.2 6.2 0 00-1-.84 4.29 4.29 0 00-2.37-.86 4.92 4.92 0 00-3.33 1.89c.1.12 1.64 1.82 3.43 1.71a4.28 4.28 0 002.32-1 6.74 6.74 0 00.94-.9zm4.75 11.39a6.43 6.43 0 00-1.26.3 4.31 4.31 0 00-2.08 1.41 4.93 4.93 0 00-.43 3.81c.16 0 2.44-.26 3.4-1.78a4.22 4.22 0 00.56-2.45 6.72 6.72 0 00-.17-1.28zm-40.54 19.82c-.08.13-1.19 2.13-.52 3.79a4.32 4.32 0 001.67 1.89 6.79 6.79 0 001.15.6 6.21 6.21 0 00.49-1.2 4.34 4.34 0 00.06-2.51 4.84 4.84 0 00-2.85-2.57zm53.18-14.24a6.38 6.38 0 001.18.52 6.45 6.45 0 00.4-1.24 4.26 4.26 0 00-.11-2.51 4.87 4.87 0 00-3-2.35c-.07.13-1 2.21-.25 3.82a4.17 4.17 0 001.78 1.76zm2.61 5.3a6.65 6.65 0 00-.82-1 4.22 4.22 0 00-2.16-1.28 4.91 4.91 0 00-3.63 1.24 5 5 0 003.06 2.31 4.29 4.29 0 002.46-.54 5.82 5.82 0 001.09-.73zm-26.72-31.04a6.13 6.13 0 00-1.27.24 4.24 4.24 0 00-2.15 1.31 4.9 4.9 0 00-.61 3.79 4.91 4.91 0 003.47-1.62 4.24 4.24 0 00.68-2.42 6.29 6.29 0 00-.12-1.3zm6.72 46.95a6.88 6.88 0 00-1-.84 4.21 4.21 0 00-2.37-.85 4.92 4.92 0 00-3.33 1.89c.1.12 1.64 1.81 3.43 1.7a4.21 4.21 0 002.32-1 6.39 6.39 0 00.94-.89zm-14.4-42.25a4.3 4.3 0 00-1.51-2 4.91 4.91 0 00-3.83-.24c0 .15.38 2.41 1.94 3.3a4.23 4.23 0 002.48.45 6.64 6.64 0 001.27-.24 6.76 6.76 0 00-.35-1.27zm3.4 38.43a6.1 6.1 0 00-1 .83 4.22 4.22 0 00-1.25 2.18 4.88 4.88 0 001.29 3.61 4.94 4.94 0 002.27-3.08 4.26 4.26 0 00-.58-2.46 6.27 6.27 0 00-.73-1.08zm-24.59-15.44a4.31 4.31 0 00.2-2.51 6.19 6.19 0 00-.35-1.24 6.46 6.46 0 00-1.2.48 4.24 4.24 0 00-1.86 1.7 4.94 4.94 0 00.12 3.83 4.94 4.94 0 003.09-2.26zm-2-7.59a4.23 4.23 0 002.42.69 5.94 5.94 0 001.29-.1 6.27 6.27 0 00-.24-1.28 4.2 4.2 0 00-1.29-2.16 4.92 4.92 0 00-3.78-.63 4.94 4.94 0 001.6 3.48zm16.89 35a4.24 4.24 0 00-1.42 2.08 6.09 6.09 0 00-.31 1.25 6.72 6.72 0 001.28.17 4.25 4.25 0 002.46-.55 4.87 4.87 0 001.79-3.38 4.9 4.9 0 00-3.8.43z" fill="#fff2d9"/><path d="M270.71 236a141.13 141.13 0 00-16-4.88l35.11 35.56 1.31-.88 3.42-2.31-15.72-19zm47.78 56.44h.01z"/><path d="M255.48 225.74h-.13c-1.18-.28-2.37-.54-3.56-.79h-.24c-1.24-.26-2.49-.51-3.75-.74l6.88 7a141.13 141.13 0 0116 4.88l-7.86-8.28q-3.63-1.18-7.34-2.07z" fill="#a0bff9"/><path d="M308.69 409.82V415h4.77c-2.89-1.86-4.77-3.78-4.77-5.18z" fill="#156a41"/><path d="M321.29 410c-7-2.54-12.6-2.61-12.6-.18 0 1.4 1.88 3.32 4.77 5.18h17.36a33 33 0 00-6.24-3.65c-1.05-.48-2.15-.94-3.29-1.35z" fill="#05a357"/><path d="M24.44 310.28A56.42 56.42 0 010 322.94v3.58a56.67 56.67 0 0024.44-16.24z" fill="#c14f29"/><path d="M43.59 267.77A56.58 56.58 0 000 212.79v4.76a52 52 0 0139 50.23 52 52 0 01-39 50.4v4.76a56.42 56.42 0 0024.44-12.66 56.43 56.43 0 0019.15-42.51z" fill="#fff"/><path d="M39 267.78a52 52 0 00-39-50.23v8.07a44.21 44.21 0 0131.13 44.6A44.18 44.18 0 010 310.11v8.07a52 52 0 0039-50.4z" fill="#e6f2ed"/><path d="M31.13 270.22A44.21 44.21 0 000 225.62v3.17a41.11 41.11 0 0126.53 27.59A41.17 41.17 0 010 306.9v3.21a44.18 44.18 0 0031.13-39.89z" fill="#ffc043"/><path d="M26.53 256.38A41.11 41.11 0 000 228.79v78.11a41.17 41.17 0 0026.53-50.52z" fill="#ffcf70"/><path d="M174.87 170.67a22.53 22.53 0 01-3.45-9.36c-1.13-8.75 4.72-12.1 4.72-12.1v-.06s-.94-8.52-1.39-12.71a25.4 25.4 0 01-2.79.07c-7.66-.24-15.5-.52-22.66-.79l22.4 34.83a8.55 8.55 0 003.17.12zm-32.32-19.36l.9-3c-.32 1.05-.63 2.07-.9 3zm-16.69-16.48l-3.65-.15-.77 1.19-.63 7.55s-3.28 6.34-8.91 18.05c-4.24 8.82 1.23 21.3 6.92 22.86a22 22 0 013.23-9.83c4.63-7.52 11.28-6.45 11.28-6.45s3.63-5.31 5.49-8.1q.54-.82 1-1.68zM142 153.24c.17-.56.35-1.18.54-1.83q-.28 1-.54 1.83zm-.56 1.56c-.06.17-.13.34-.2.51.07-.17.14-.31.2-.51zm-.64 1.55c-.09.18-.17.37-.25.55z" fill="#fa9269"/><path d="M134.5 135.17l-8.64-.34 14 23.45c.25-.45.48-.91.71-1.37.08-.18.16-.37.25-.55.15-.34.3-.69.44-1 .07-.17.14-.34.2-.51.19-.51.37-1 .53-1.56q.25-.84.54-1.83v-.1c.27-.93.58-1.95.9-3z" fill="#ff6937"/><path d="M121 134.63c-15-.53-26.58 8.37-38.11 17.13-3.41 7.29-1.06 17.41 3.56 18.31.3-2 2-5.62 5.32-8.48 5.37-4.69 10.25-2.26 10.25-2.26s4.64-4 6.38-5.38a22.51 22.51 0 004.39-4.9c2-3.08 5.43-8.25 8.65-13.18l.77-1.19z" fill="#fa9269"/><path d="M141 84.66l-28-5.3 13 20.11 5.83 1.27 34.06 7.37-15.64-18.86-2.58-3.11zm-38.48 3.71l.08.12.06.07z" fill="#993f21"/><path d="M195.21 224.05l3.36 4.92 21.52 31.5 8.56 12.53-2.88-18.4 8.87 13.78-26.16-40.66-3.28-5.1-2.56-4-1.75-2.71-.5-.78-.92-1.42-2.47-3.9-25.3-39.25-22.4-34.83-14.8-.56 8.95 13.11L167 182.73l19.79 29z" fill="#870f00"/><path d="M102.66 88.56l-.06-.07a19.82 19.82 0 001.4 2.08l.18.2z" fill="#f1998e"/><path d="M167.62 54.57l-1.98-8.66-8.92 10.33 6.88 2.99z" fill="#05a357"/><path d="M184.92 112.66c1.05.44 2.11.91 3.18 1.44 4.07 2 5.38 4.8 4.9 7.43a6 6 0 01-.27 1.11l8.09 10.36c4.54 2.32 8.65 2.58 10.79.74a21.62 21.62 0 01-7-8.67c-3.65-8 1-13 1-13-1.87-4.9-4-10.34-5-13.09a23.41 23.41 0 00-3.47-6.06c-4.39-5.52-14.19-17.87-18.49-23.07a34.85 34.85 0 00-12.95-9.76l-2-.88-6.88-3-24.2-10.55 27.76 35.48zM75 157.56l.34-.24c2.53-1.78 5-3.67 7.51-5.56C94.42 143 106 134.1 121 134.63l2-17.76-11.75 1-10.13-31.3a30.9 30.9 0 002.82 4 19.82 19.82 0 01-1.39-2.08l-.08-.12-32.08-47.05-40.87 33.82A62 62 0 010 88.6v79.89l4.52 1.26A83.35 83.35 0 0075 157.56zm38-78.2l28 5.3-33.13-46.59-4-4.83a29 29 0 00-20.71-.32z" fill="#fabda5"/><path d="M141 84.66h.02l6.65 1.48-39.81-48.07z" fill="#fa9269"/><path d="M319.7 288l-1.21 4.41 6.74 8.15a1.34 1.34 0 001.88.19l2-1.64a1.33 1.33 0 00.21-1.87l-9.23-11.8a14.14 14.14 0 01-.39 2.56zM165.86 108.11l6.76 1.46a37.32 37.32 0 0112.3 3.09l-24.64-31.49-10 8.08zM189.62 126c0 .17-.06.34-.11.51a12.33 12.33 0 01-3.72 5.65l7.39 8.92 57.62 69.59 4.3 5.18 1.6 1.95 2.33 2.81 1.7 2.05 4.84 5.84 6.66 8 6.56 7.93 15.72 19 5.51-3.71-12.85-16.43-7.47-9.54-5.26-6.72-1.44-1.87-3.14-4-1.32-1.69-4.5-5.74L200.82 133l-8.09-10.33a6.07 6.07 0 01-3.11 3.33z" fill="#870f00"/><path d="M122.21 134.68l3.65.15 8.64.34 14.8.56c7.16.27 15 .55 22.66.79a25.4 25.4 0 002.79-.07 18.18 18.18 0 0011-4.27 12.33 12.33 0 003.72-5.65c.05-.17.07-.34.11-.51a11.24 11.24 0 01-3.56 1.09c-9.9 1.41-17.77 0-20.28-2.57-1.26-1.3-1.67-4.28-1.23-7.48s1.87-5.9 3.47-6.75a9.45 9.45 0 014.6-.74l-6.76-1.46-34.06-7.37 8 14.72-16.77 1.41-2 17.76z" fill="#fabda5"/><path d="M107.86 38.07l39.81 48.07 2.58 3.11 10.03-8.08-27.76-35.48L96.77 0H76.34l27.53 33.24zm-3.69 52.7c3.74 4.33 7.71 5.62 13 6.77l8.8 1.93L113 79.36 83.16 32.92 62.07.15l-13.63 9 22 32.13 32.13 47.05.14.19z" fill="#142328"/><path d="M139.82 115.46l-8-14.72-5.82-1.27-8.8-1.93c-5.29-1.15-9.26-2.44-13-6.77l-.18-.2a30.9 30.9 0 01-2.82-4l10.13 31.3 11.75-1z" fill="#fabda5"/><path d="M122.05 174.5a22 22 0 00-3.23 9.83c-.19 3.08.67 4.73 1.9 2.92 2.29-3.37 12.61-19.2 12.61-19.2s-6.65-1.05-11.28 6.45zm-30.28-12.91c-3.27 2.86-5 6.5-5.32 8.48-.19 1.27.21 1.85 1.22 1.05 2.58-2.05 14.35-11.79 14.35-11.79s-4.88-2.43-10.25 2.26z" fill="#5b91f4"/><path d="M311.16 252.26a11.56 11.56 0 00-1.58 1.27l2.39 6.35 3.13 8.31a21.05 21.05 0 01-.9-11.5l.35-1.68.16-.77a2.12 2.12 0 00-3.26-2.18l-.34.23-.63.42z" fill="#ffcf70"/><path d="M237.57 301.82l1.63-1.1-1.94 1.28a2.12 2.12 0 00-.57 2.93 2.1 2.1 0 001.38.9l2.46.45a20.75 20.75 0 0110.31 5.16l-11.51-10.63a12.68 12.68 0 00-1.76 1.01z" fill="#ffc043"/><path d="M308.43 254.8a10.08 10.08 0 00-1.65 3.14l-1.71 5.53s-1.89 6.9-4.38 10.1c-2.28 2.93-6.26 5-9.3 7.74-2.84 2.59-4.1 5.61-8.41 8.52s-7.6 2.94-11.06 4.59c-3.71 1.78-7.1 4.71-10.66 5.72a22.38 22.38 0 01-5.83.56l14.66 22.79 11.48 1.38a31.78 31.78 0 0021.5-5.19 31.74 31.74 0 0012.89-18l2.52-9.26 1.22-4.42a14.14 14.14 0 00.44-2.56 14.3 14.3 0 00-.85-6.17L312 259.88l-2.39-6.35a11.47 11.47 0 00-1.18 1.27zM270 316.44a12.25 12.25 0 011.78-16.82zm8.08-8.24a16.83 16.83 0 01.75-11.05L284 317.6a16.79 16.79 0 01-5.88-9.4zm34.25-20.2a12.21 12.21 0 01-16.25-4.68zm-23.2 17.27a16.79 16.79 0 01-3.07-10.64l11.77 17.48a16.84 16.84 0 01-8.7-6.88zm8.51-7.38a16.78 16.78 0 01-6.52-9l17 12.4a16.85 16.85 0 01-10.48-3.44zm-36.76 22.69a14.34 14.34 0 01-1.31-1.05 14.34 14.34 0 001.31 1.05zm.22.16l.31.22zm29.99-54.97l-1.31.89-32.15 21.65-7.1 4.78 51.27-34.53-1.78 1.2-5.51 3.71z" fill="#ffcf70"/><path d="M247.18 300.13l-2.7-.23a8.53 8.53 0 00-.88 0 10.53 10.53 0 00-2.65.38l-.82.26c-.26.1-.53.21-.79.33l20.23 18.68a14.34 14.34 0 001.31 1.05l.22.16.28.17zm-2.24-3.28l-2.33 1.58-3.41 2.29.77-.52zm56.86-38.29l-51.27 34.53 4.9 7.61a22.38 22.38 0 005.83-.56c3.56-1 6.95-3.94 10.66-5.72 3.46-1.65 6.75-1.69 11.06-4.59s5.57-5.93 8.41-8.52c3-2.77 7-4.81 9.3-7.74 2.49-3.2 4.38-10.1 4.38-10.1l1.71-5.53a10.08 10.08 0 011.65-3.14 11.47 11.47 0 011.15-1.27 11.56 11.56 0 011.58-1.27l-.68.45-4.09 2.76z" fill="#ffc043"/><path d="M239.2 300.72l-1.63 1.1a12.68 12.68 0 011.76-1l-.14-.12zm.93-.21l.82-.26a10.53 10.53 0 012.65-.38 10.53 10.53 0 00-2.65.38zm-.16-.31l4.39-2.95.58-.4zm4.51-.3a8.53 8.53 0 00-.88 0 8.53 8.53 0 01.88 0l2.7.23z" fill="#ffc043"/><path d="M240.13 300.51l.82-.26a10.53 10.53 0 012.65-.38 8.53 8.53 0 01.88 0l2.7.23-2.24-3.28-.58.4-4.36 2.98-.77.52.14.12c.23-.12.5-.23.76-.33z" fill="#ff6937"/><path d="M289.13 305.23a16.84 16.84 0 008.7 6.84l-11.77-17.48a16.79 16.79 0 003.07 10.64zm8.51-7.38a16.85 16.85 0 0010.51 3.45l-17-12.4a16.78 16.78 0 006.49 8.95zm-19.52 10.35a16.79 16.79 0 005.83 9.4l-5.08-20.45a16.83 16.83 0 00-.75 11.05zm25.15-19.31a11.87 11.87 0 009.06-.93l-16.25-4.68a11.85 11.85 0 007.19 5.61zm-35.71 18.78a11.85 11.85 0 002.48 8.77l1.78-16.82a11.84 11.84 0 00-4.26 8.05z" fill="#ffc043"/><path d="M250.53 293.09l-15.89-24.7-8.87-13.78 2.88 18.4 16.29 23.84 2.24 3.28 14.2 20.78 12.8 18.74a1.35 1.35 0 001.86.36l2.17-1.44a1.34 1.34 0 00.39-1.85l-8.54-13.28-14.63-22.74z" fill="#870f00"/><path d="M414.39 317a4.33 4.33 0 00-2.45.63 7.25 7.25 0 00-1.06.74 6.24 6.24 0 00.85 1 4.16 4.16 0 002.21 1.21 4.87 4.87 0 003.6-1.37c-.08-.11-1.36-2.02-3.15-2.21zm-65.12-94.86a4.33 4.33 0 00-1.13 2.26 6.59 6.59 0 00-.14 1.3 6.6 6.6 0 001.3 0 4.26 4.26 0 002.37-.88 4.9 4.9 0 001.32-3.61 5 5 0 00-3.72.93zm15.84 7.23a4.2 4.2 0 00-1.32-2.15 4.88 4.88 0 00-3.79-.6c0 .15.15 2.45 1.62 3.48a4.32 4.32 0 002.44.68 6.7 6.7 0 001.29-.12 6 6 0 00-.24-1.29zM28.74 202.82a4.89 4.89 0 000 3.84 4.34 4.34 0 001.94 1.63 6.57 6.57 0 001.22.43 6.4 6.4 0 00.3-1.26 4.3 4.3 0 00-.31-2.51 4.88 4.88 0 00-3.15-2.13zM19.67 53.37a4 4 0 00-.86 2.25 6.14 6.14 0 000 1.24 5.83 5.83 0 001.19-.11 4.08 4.08 0 002.17-1 4.78 4.78 0 00.93-3.55 4.72 4.72 0 00-3.43 1.17zm42.22 181.38a6.37 6.37 0 001.13.51 4 4 0 002.41.16 4.69 4.69 0 002.57-2.63 4.68 4.68 0 00-3.61-.65 4.07 4.07 0 00-1.86 1.52 6.06 6.06 0 00-.63 1.08zM32.23 339.83a6.49 6.49 0 001.17.4 6.51 6.51 0 00.27-1.21 4 4 0 00-.33-2.39 4.69 4.69 0 00-3.08-2 4.68 4.68 0 00.08 3.66 4.05 4.05 0 001.89 1.54z" fill="#fff2d9"/><path d="M283.77 189.05l-6.22 5.68 11.47-3.11 2.71-4.72z" fill="#05a357"/><path d="M291.73 186.9l-2.71 4.72-4.15 7.24 9.93-.83 11.11-19.4-9.92.84zM23.88 364.1l-3.49-6.1-9.93-.84 11.11 19.4 9.93.83-5.5-9.59-3.49 1.69zm1.46-339.35l4.79-21.83L27.41 0h-5.03l-3.83 17.47z" fill="#156a41"/><path d="M23.88 364.1l-1.37 5.39L26 367.8l8.86-4.31 1.82-7.18-12.34 6.01z" fill="#05a357"/><path d="M205.73 29.4l-3.8-3.35-13.69 21.51 20.67 13.14a31 31 0 004.53-21l-.72-5 .64 4.46a33.48 33.48 0 00-7.63-9.76z" fill="#fff"/><path d="M201.93 26.05l3.8 3.35a33.48 33.48 0 017.63 9.78l-.64-4.46-3.62-25.58A33.5 33.5 0 00205.92 0h-33.43l-.05.06z" fill="#ffe1d6"/><path d="M171.42 161.31a22.53 22.53 0 003.45 9.36c1.87 2.76 3.73 3.67 3.54 1.39-.13-1.55-.49-5.25-.89-9.23-.64-6.37-1.37-13.45-1.38-13.61s-5.85 3.34-4.72 12.09z" fill="#5b91f4"/><path d="M204.57 125a21.62 21.62 0 007 8.67c2.09 1.39 3.53 1.4 2.79-.44-1.5-3.78-8.86-21.17-8.87-21.18s-4.57 4.95-.92 12.95zm-31.95-15.43a9.45 9.45 0 00-4.6.74c-1.6.85-2.9 3.56-3.47 6.75s0 6.18 1.23 7.48c2.51 2.59 10.38 4 20.28 2.57a11.24 11.24 0 003.56-1.09 6.07 6.07 0 003.11-3.38 6 6 0 00.27-1.11c.48-2.63-.83-5.45-4.9-7.43-1.07-.53-2.13-1-3.18-1.44a37.32 37.32 0 00-12.3-3.09z" fill="#a0bff9"/><path d="M187.77 221.22l-1.09-1.32c-1.26.29-2.54.59-3.8.9l-.56-2.14 2.8-.67-1.12-1.32c-.94.23-1.89.45-2.82.7s-1.78.51-2.66.76c-1.21.34-2.44.69-3.66 1.06l1.09 1.27 2.64-.76 2.25-.63.37 1.39.2.74-2.22.63-.54.15-1.13.32 1.1 1.29 1.28-.37.48-.13 2.15-.61c.78-.21 1.57-.41 2.36-.6l2.37-.54z" fill="#5b91f4"/><path d="M256.48 107.79a4.55 4.55 0 00-2.62-.58 7.1 7.1 0 00-1.36.18 7.1 7.1 0 00.33 1.34 4.5 4.5 0 001.51 2.21c1.54 1.12 3.9.49 4 .44s-.25-2.57-1.86-3.59zm110.71-58.7a6.71 6.71 0 001.2.67 4.53 4.53 0 002.65.4c1.87-.36 3-2.52 3.08-2.67-.12-.1-2.09-1.54-3.94-1.06a4.58 4.58 0 00-2.18 1.51 7 7 0 00-.79 1.13zM415.69 361a4.54 4.54 0 000 2.68 7.13 7.13 0 00.47 1.29 7.09 7.09 0 001.24-.6 4.5 4.5 0 001.84-1.94c.78-1.75-.33-3.92-.41-4.06-.17.01-2.48.8-3.14 2.63zM263.76 78.05a6 6 0 00-.88.88 4.18 4.18 0 00-1 2.2 4.74 4.74 0 001.57 3.32 4.7 4.7 0 001.87-3.15 4.1 4.1 0 00-.77-2.29 6.39 6.39 0 00-.79-.96z" fill="#fff2d9"/></svg>